<?xml version="1.0" encoding="UTF-8" standalone="no"?>
<svg
   xmlns:dc="http://purl.org/dc/elements/1.1/"
   xmlns:cc="http://creativecommons.org/ns#"
   xmlns:rdf="http://www.w3.org/1999/02/22-rdf-syntax-ns#"
   xmlns:svg="http://www.w3.org/2000/svg"
   xmlns="http://www.w3.org/2000/svg"
   width="100pt"
   height="100pt"
   viewBox="0 0 35.277779 35.277777"
   version="1.1"
   id="svg8">
  <defs
     id="defs2" />
  <metadata
     id="metadata5">
    <rdf:RDF>
      <cc:Work
         rdf:about="">
        <dc:format>image/svg+xml</dc:format>
        <dc:type
           rdf:resource="http://purl.org/dc/dcmitype/StillImage" />
        <dc:title></dc:title>
      </cc:Work>
    </rdf:RDF>
  </metadata>
  <path
     id="rect4517"
     transform="scale(0.26458335)"
     d="M 75.353516 17.65625 C 73.930645 17.565822 72.583504 17.926261 71.394531 19.115234 L 6.2890625 84.220703 C 3.9111124 86.598653 3.1804254 91.192962 6.0722656 92.587891 L 51.240234 114.375 C 54.132083 115.76993 57.231425 116.53811 59.609375 114.16016 L 127.00977 46.757812 C 129.38771 44.379862 130.20249 39.610744 127.22656 38.388672 L 79.761719 18.898438 C 78.273755 18.287405 76.776387 17.746678 75.353516 17.65625 z M 24.046875 72.191406 C 25.40433 72.28605 26.810652 72.809676 28.205078 73.402344 L 72.685547 92.308594 C 75.474411 93.493929 74.463928 98.047269 72.072266 100.30664 L 58.888672 112.76172 C 56.496991 115.02109 53.569106 114.27001 50.869141 112.91992 L 8.6972656 91.832031 C 5.9973039 90.48195 6.9208162 86.093344 9.3125 83.833984 L 20.185547 73.5625 C 21.381385 72.43282 22.68942 72.096763 24.046875 72.191406 z "
     style="fill:#cbcbcb;fill-opacity:1;stroke:none;stroke-width:0.61105418;stroke-linecap:round;stroke-linejoin:round;stroke-miterlimit:4;stroke-dasharray:none;stroke-opacity:1" />
</svg>
