<?xml version="1.0" encoding="UTF-8" standalone="no"?>
<!-- Created with Inkscape (http://www.inkscape.org/) -->

<svg
   width="100pt"
   height="100pt"
   viewBox="0 0 35.277777 35.277777"
   version="1.1"
   id="svg5"
   inkscape:version="1.2.2 (b0a8486541, 2022-12-01)"
   sodipodi:docname="icon.svg"
   xmlns:inkscape="http://www.inkscape.org/namespaces/inkscape"
   xmlns:sodipodi="http://sodipodi.sourceforge.net/DTD/sodipodi-0.dtd"
   xmlns="http://www.w3.org/2000/svg"
   xmlns:svg="http://www.w3.org/2000/svg">
  <sodipodi:namedview
     id="namedview7"
     pagecolor="#ffffff"
     bordercolor="#000000"
     borderopacity="0.25"
     inkscape:showpageshadow="2"
     inkscape:pageopacity="0.0"
     inkscape:pagecheckerboard="0"
     inkscape:deskcolor="#d1d1d1"
     inkscape:document-units="pt"
     showgrid="false"
     showborder="false"
     showguides="false"
     inkscape:zoom="3.9408307"
     inkscape:cx="51.638859"
     inkscape:cy="80.186139"
     inkscape:window-width="1920"
     inkscape:window-height="1011"
     inkscape:window-x="0"
     inkscape:window-y="0"
     inkscape:window-maximized="1"
     inkscape:current-layer="layer1" />
  <defs
     id="defs2" />
  <g
     inkscape:label="Layer 1"
     inkscape:groupmode="layer"
     id="layer1">
    <path
       id="path228"
       style="fill:#000000;stroke:#000000;stroke-width:0.712134;stroke-linecap:round;stroke-linejoin:bevel"
       d="M 8.5762065,0.35605691 C 6.1599204,0.67613877 4.154298,2.4896306 2.5368281,4.3588251 0.87164921,6.3787438 -0.14727657,9.2369192 0.61337164,11.937782 1.2107138,14.563692 2.618927,17.122328 4.8941932,18.35451 c 2.1500775,1.401895 4.3846976,2.906646 6.9590658,3.023454 1.609619,0.12253 3.183302,0.577118 4.662565,1.228379 -0.574095,1.395792 -1.543408,3.061227 -1.908183,4.796397 -0.739869,2.576013 -3.420318,2.671184 -5.4154172,3.211157 -1.4461887,0.144273 -3.9166345,2.417454 -1.4494128,3.136347 l 1.9657252,1.220558 c 0.9874468,-2.421257 3.7292118,-2.158464 5.6750828,-2.874538 1.864141,-0.607815 2.528382,-2.738577 3.056677,-4.558227 0.376009,-2.280536 2.249502,-3.207393 4.123765,-2.367165 2.76002,0.322969 5.716304,-0.436313 7.664074,-2.717716 2.325568,-2.549332 3.533026,-6.030195 4.459927,-9.417218 0.887317,-1.770374 -1.054804,-2.430246 -0.64109,-4.3098772 C 33.610698,6.6269524 31.958321,5.0907319 30.461943,3.8245444 28.455744,2.3658967 26.248109,0.67146092 23.712686,0.9517923 21.826747,0.62971 19.901484,1.1473634 18.303396,2.2613262 15.959091,3.2731881 13.751324,1.5008444 11.618184,0.71372996 10.628074,0.42243856 9.5965785,0.36458372 8.5762065,0.35605691 Z M 11.372139,2.7474752 c 2.246314,-0.2177943 4.273404,0.9699728 6.292473,1.8290207 2.367042,1.1571973 4.430224,-0.7118292 6.623543,-1.247198 2.069161,-0.2153308 4.542521,-0.2395811 5.695518,2.0391267 1.229489,1.492407 0.388889,4.0390944 1.613247,5.2253074 -0.460785,3.763986 -2.009585,7.480186 -4.561549,10.085807 -1.819252,1.728678 -4.291448,2.447686 -6.662772,2.196012 C 18.548096,22.30466 16.786494,22.13527 15.21179,20.741963 13.47741,20.184779 11.791905,19.189579 9.9455356,19.105224 8.0863143,19.059466 5.7797318,18.704964 4.9935616,16.54536 3.477109,13.985891 2.902925,10.410243 4.6316398,7.7922592 6.1099903,5.3287888 8.4451785,3.2541202 11.14046,2.7536457 Z"
       sodipodi:nodetypes="cccccccccccccccccccccccccccccccccc" />
  </g>
</svg>
