<?xml version="1.0" encoding="UTF-8" standalone="no"?>
<!-- Created with Inkscape (http://www.inkscape.org/) -->

<svg
   width="100pt"
   height="100pt"
   viewBox="0 0 35.277777 35.277777"
   version="1.1"
   id="svg5"
   inkscape:version="1.2.2 (b0a8486541, 2022-12-01)"
   sodipodi:docname="icon.svg"
   xmlns:inkscape="http://www.inkscape.org/namespaces/inkscape"
   xmlns:sodipodi="http://sodipodi.sourceforge.net/DTD/sodipodi-0.dtd"
   xmlns="http://www.w3.org/2000/svg"
   xmlns:svg="http://www.w3.org/2000/svg">
  <sodipodi:namedview
     id="namedview7"
     pagecolor="#ffffff"
     bordercolor="#000000"
     borderopacity="0.25"
     inkscape:showpageshadow="2"
     inkscape:pageopacity="0.0"
     inkscape:pagecheckerboard="0"
     inkscape:deskcolor="#d1d1d1"
     inkscape:document-units="pt"
     showgrid="false"
     showborder="false"
     showguides="false"
     inkscape:zoom="3.9408307"
     inkscape:cx="51.385105"
     inkscape:cy="80.186139"
     inkscape:window-width="1920"
     inkscape:window-height="1011"
     inkscape:window-x="0"
     inkscape:window-y="0"
     inkscape:window-maximized="1"
     inkscape:current-layer="layer1" />
  <defs
     id="defs2" />
  <g
     inkscape:label="Layer 1"
     inkscape:groupmode="layer"
     id="layer1">
    <path
       id="rect294"
       style="fill:#000000;fill-opacity:1;stroke-width:0.196742;stroke-linejoin:bevel"
       d="M 22.811282,3.9864359e-5 C 22.579115,-0.00414963 22.342858,0.32182259 21.689014,1.0046718 L 18.528629,4.1669971 31.109185,16.737656 34.276347,13.56856 c 1.174295,-1.175055 1.431975,-0.899747 0.143867,-2.09103 L 23.909051,0.97550679 C 23.271634,0.33864364 23.043449,0.004229 22.811282,3.9864359e-5 Z M 18.025093,4.6711359 0,22.70816 V 35.277778 H 12.581078 L 30.606692,17.240754 Z m -0.09174,3.672193 a 0.35584551,0.35553612 0 0 1 0.159505,0.09062 0.35584551,0.35553612 0 0 1 0.0041,0.5020556 L 2.3378411,24.862208 a 0.35584551,0.35553612 0 0 1 -0.5019712,0.0021 0.35584551,0.35553612 0 0 1 -0.00417,-0.502056 L 17.590364,8.4360321 a 0.35584551,0.35553612 0 0 1 0.342988,-0.092703 z m 6.246752,6.2152811 a 0.35584551,0.35553612 0 0 1 0.252811,0.10364 0.35584551,0.35553612 0 0 1 0.0021,0.502056 L 8.6778993,31.088426 a 0.35584551,0.35553612 0 0 1 -0.5045775,0.0041 0.35584551,0.35553612 0 0 1 -0.00156,-0.504138 L 23.928337,14.664333 a 0.35584551,0.35553612 0 0 1 0.251768,-0.105723 z m 2.997233,2.811824 a 0.35584551,0.35553612 0 0 1 0.251768,0.102598 0.35584551,0.35553612 0 0 1 0.0021,0.504139 L 11.674609,33.901292 a 0.35584551,0.35553612 0 0 1 -0.504576,0.0021 0.35584551,0.35553612 0 0 1 -0.0021,-0.502055 L 26.927134,17.477199 a 0.35584551,0.35553612 0 0 1 0.250203,-0.106765 z" />
    <path
       style="fill:none;stroke-width:0.176389;stroke-linejoin:bevel"
       d="M 24.929279,1.5525888 2.5107617,23.971106"
       id="path501" />
  </g>
</svg>
