<?xml version="1.0" encoding="UTF-8" standalone="no"?>
<svg
   xmlns:dc="http://purl.org/dc/elements/1.1/"
   xmlns:cc="http://creativecommons.org/ns#"
   xmlns:rdf="http://www.w3.org/1999/02/22-rdf-syntax-ns#"
   xmlns:svg="http://www.w3.org/2000/svg"
   xmlns="http://www.w3.org/2000/svg"
   xmlns:sodipodi="http://sodipodi.sourceforge.net/DTD/sodipodi-0.dtd"
   xmlns:inkscape="http://www.inkscape.org/namespaces/inkscape"
   id="svg8"
   version="1.1"
   viewBox="0 0 35.277779 35.277777"
   height="100pt"
   width="100pt"
   sodipodi:docname="background0.svg"
   inkscape:version="0.92.3 (2405546, 2018-03-11)">
  <sodipodi:namedview
     pagecolor="#ffffff"
     bordercolor="#666666"
     borderopacity="1"
     objecttolerance="10"
     gridtolerance="10"
     guidetolerance="10"
     inkscape:pageopacity="0"
     inkscape:pageshadow="2"
     inkscape:window-width="1366"
     inkscape:window-height="705"
     id="namedview2237"
     showgrid="false"
     inkscape:zoom="3.54"
     inkscape:cx="106.02369"
     inkscape:cy="59.868915"
     inkscape:window-x="-8"
     inkscape:window-y="-8"
     inkscape:window-maximized="1"
     inkscape:current-layer="svg8" />
  <title
     id="title4528">Default</title>
  <defs
     id="defs2">
    <inkscape:path-effect
       is_visible="true"
       id="path-effect2365"
       effect="spiro" />
    <inkscape:path-effect
       effect="spiro"
       id="path-effect2241"
       is_visible="true" />
  </defs>
  <metadata
     id="metadata5">
    <rdf:RDF>
      <cc:Work
         rdf:about="">
        <dc:format>image/svg+xml</dc:format>
        <dc:type
           rdf:resource="http://purl.org/dc/dcmitype/StillImage" />
        <dc:title>Default</dc:title>
        <dc:creator>
          <cc:Agent>
            <dc:title>Jonathan Crowder</dc:title>
          </cc:Agent>
        </dc:creator>
        <dc:description>A default for inkscape</dc:description>
      </cc:Work>
    </rdf:RDF>
  </metadata>
  <path
     style="fill:none;stroke:#ffd77d;stroke-width:0.05291667;stroke-linecap:butt;stroke-linejoin:miter;stroke-opacity:1;stroke-miterlimit:4;stroke-dasharray:0.31750001,0.31750001;stroke-dashoffset:0"
     d="M 30.600099,2.7222354 C 30.156582,1.9217135 29.335787,1.3411512 28.433251,1.1895881 c -0.140095,-0.023526 -0.285644,-0.036997 -0.422799,0 -0.100519,0.027115 -0.194025,0.081689 -0.26425,0.1585497 -0.04683,0.051258 -0.08353,0.1130774 -0.09825,0.1809292 -0.01472,0.067852 -0.0061,0.1419238 0.03063,0.2008374 0.01837,0.029457 0.04352,0.054798 0.07337,0.07252 0.02985,0.017722 0.06441,0.027699 0.09912,0.0276 0.03472,-9.93e-5 0.06948,-0.010407 0.09808,-0.030085 0.0286,-0.019678 0.0508,-0.048761 0.0613,-0.081852 0.01513,-0.047702 0.0053,-0.1008193 -0.01789,-0.1451479 -0.02323,-0.044329 -0.05885,-0.080938 -0.09671,-0.113656 -0.03787,-0.032718 -0.07849,-0.06224 -0.115066,-0.096395 -0.03658,-0.034155 -0.06948,-0.073735 -0.08743,-0.1204504 -0.01004,-0.026129 -0.01516,-0.05383 -0.02184,-0.081013 -0.0067,-0.027183 -0.01518,-0.054454 -0.03101,-0.077537 -0.01912,-0.027869 -0.04826,-0.048145 -0.08018,-0.059226 -0.03193,-0.011081 -0.06652,-0.013307 -0.100089,-0.00942 -0.06714,0.00777 -0.128962,0.03895 -0.189678,0.068649 -0.68259,0.3338877 -1.421435,0.5394929 -2.166846,0.6870488 -0.157656,0.031208 -0.316449,0.059975 -0.477032,0.066492 -0.160583,0.00652 -0.323867,-0.00984 -0.474266,-0.066492 -0.19774,-0.074484 -0.362959,-0.2138728 -0.525333,-0.3490908 -0.162373,-0.135218 -0.331063,-0.2715657 -0.531665,-0.337958 -0.08544,-0.028278 -0.17478,-0.043123 -0.26425,-0.05285 -0.403603,-0.0438768 -0.815186,0.014464 -1.215548,-0.0528499 -0.02641,-0.00444 -0.05282,-0.009433 -0.07956,-0.0108116 -0.02675,-0.001379 -0.05408,9.8376e-4 -0.07899,0.0108116 -0.03255,0.0128421 -0.05935,0.0379548 -0.07827,0.0673908 -0.01892,0.029436 -0.03045,0.063082 -0.03826,0.097195 -0.01561,0.068226 -0.01713,0.139952 -0.04202,0.2053633 -0.01862,0.048919 -0.04993,0.092599 -0.08843,0.1280621 -0.0385,0.035463 -0.08406,0.062856 -0.132408,0.082902 -0.0967,0.040091 -0.203003,0.050731 -0.307657,0.053286 -0.105675,0.00258 -0.211426,-0.00262 -0.3171,0 -0.265212,0.00659 -0.534803,0.062004 -0.792749,0 C 19.444263,1.5604898 19.256526,1.4307037 19.075838,1.3016347 18.895151,1.1725656 18.71098,1.0391758 18.497468,0.97818846 18.345644,0.93482144 18.184193,0.93021941 18.028006,0.95339077 17.871818,0.97656213 17.720556,1.0269606 17.576436,1.0914649 17.288197,1.2204735 17.02871,1.4048071 16.753421,1.5595375 16.621256,1.6338232 16.481433,1.7025265 16.330622,1.7180872 16.201381,1.7314223 16.07076,1.7047284 15.948101,1.66188 15.825443,1.6190317 15.709095,1.5602519 15.590723,1.5066876 15.28069,1.3663954 14.955995,1.2615811 14.639425,1.1367382 14.26416,0.98874838 13.895094,0.81102964 13.496993,0.7459138 c -0.199051,-0.0325579 -0.40446,-0.0359979 -0.601395,0.007568 -0.196934,0.043566 -0.385277,0.13576229 -0.528719,0.27755642 -0.125475,0.1240334 -0.212611,0.2806356 -0.317099,0.4227992 -0.07353,0.1000408 -0.155977,0.1933056 -0.228798,0.2938626 -0.07282,0.1005571 -0.136594,0.2100663 -0.16667,0.3305239 -0.03007,0.1204577 -0.02373,0.2534894 0.03714,0.3616966 0.03044,0.054104 0.07415,0.1010716 0.127422,0.1329425 0.05327,0.031871 0.116144,0.04825 0.178053,0.043673 0.01772,-0.00131 0.0353,-0.00429 0.05303,-0.00545 0.01774,-0.00116 0.0359,-4.344e-4 0.05267,0.00545 0.02327,0.00817 0.04246,0.026047 0.05472,0.047443 0.01226,0.021396 0.01795,0.046117 0.01914,0.070749 0.0024,0.049262 -0.0125,0.097478 -0.02101,0.146058 -0.01858,0.1061221 -0.0062,0.2176232 0.03617,0.3166787 0.04237,0.099055 0.114695,0.1852248 0.205461,0.2432656 0.09077,0.058041 0.199656,0.087567 0.307264,0.082306 0.107609,-0.00526 0.213386,-0.045445 0.296702,-0.1137511 0.09131,-0.074862 0.155081,-0.1847357 0.166825,-0.3022271 0.0059,-0.058746 -0.0011,-0.1188558 -0.02124,-0.1743484 -0.02015,-0.055492 -0.05355,-0.1062555 -0.09726,-0.1459472 -0.0437,-0.039692 -0.0977,-0.068153 -0.155379,-0.080749 -0.05768,-0.012596 -0.118912,-0.00917 -0.174483,0.010763 -0.05557,0.019937 -0.105233,0.056448 -0.140001,0.1041629 -0.03477,0.047715 -0.05435,0.1065084 -0.05411,0.1655463 1.45e-4,0.035332 0.0071,0.071098 0,0.1056997 -0.0073,0.035356 -0.02926,0.066711 -0.05748,0.089235 -0.02821,0.022525 -0.06237,0.036722 -0.09743,0.045326 -0.07012,0.017207 -0.14371,0.012836 -0.215047,0.023989 -0.114365,0.01788 -0.220034,0.075697 -0.307141,0.151929 -0.08711,0.076232 -0.15686,0.1703863 -0.217852,0.268768 -0.121983,0.1967633 -0.213652,0.4159434 -0.373455,0.5834514 -0.108327,0.1135502 -0.244395,0.1986535 -0.389763,0.2577847 -0.145368,0.059131 -0.300083,0.092949 -0.455836,0.1121647 -0.174503,0.021528 -0.356763,0.024077 -0.5203642,-0.04034 C 9.8092673,4.5522831 9.7333929,4.5032594 9.6748948,4.437634 9.6163967,4.3720086 9.575884,4.2893697 9.5658337,4.2020329 c -0.00605,-0.052556 -0.00119,-0.1056607 0,-0.1585498 C 9.5715971,3.7882911 9.4898726,3.5337684 9.3468938,3.3223133 9.203915,3.1108582 9.0014002,2.9420773 8.7730851,2.8279354 8.5143868,2.6986041 8.2237893,2.6385565 7.9345762,2.6358816 7.645363,2.6332067 7.3572906,2.6867406 7.081888,2.7750854 7.0073251,2.799004 6.9328905,2.8257992 6.8665892,2.867463 6.800288,2.9091268 6.7420349,2.9670442 6.7119385,3.0393348 c -0.00764,0.018346 -0.013404,0.037427 -0.02107,0.055761 -0.00767,0.018334 -0.017447,0.036174 -0.031779,0.049939 -0.017488,0.016796 -0.04118,0.026621 -0.065345,0.028625 -0.024165,0.002 -0.048701,-0.00359 -0.070347,-0.014515 C 6.4801063,3.1372882 6.4497244,3.095484 6.4308749,3.0508014 6.4120254,3.0061187 6.4032489,2.957979 6.3924818,2.9106935 6.3817147,2.8634081 6.3684563,2.815722 6.3419891,2.7750854 6.2993545,2.7096262 6.2263055,2.6691371 6.1510288,2.6482558 6.0757521,2.6273745 5.9969777,2.6237247 5.9191899,2.6165357 5.3670064,2.5655042 4.8349857,2.3313959 4.2808427,2.3522861 4.1733738,2.3563375 4.065471,2.3702441 3.9637433,2.405136 3.7545557,2.4768859 3.5843532,2.6321242 3.3823941,2.7222354 3.3286523,2.7462142 3.2724554,2.765688 3.222907,2.797439 c -0.024774,0.015876 -0.04778,0.034835 -0.066331,0.057674 -0.018551,0.022839 -0.032557,0.04969 -0.038431,0.078522 -0.0076,0.037301 -0.00144,0.075932 -0.00359,0.1139392 -0.00107,0.019004 -0.0043,0.038111 -0.012082,0.055482 -0.00778,0.01737 -0.020418,0.032966 -0.037183,0.041979 -0.015881,0.00854 -0.03453,0.010749 -0.052522,0.00956 -0.017992,-0.00118 -0.035594,-0.00557 -0.053178,-0.00956 C 2.7267838,3.0921933 2.4788216,3.1080246 2.2546207,3.1900441 2.0304198,3.2720637 1.8307783,3.4199796 1.6870255,3.6105797 1.5432727,3.8011797 1.4559203,4.0337855 1.4386765,4.2718945 1.4214327,4.5100036 1.4743589,4.7527683 1.5891493,4.962092 1.7039397,5.1714157 1.8801858,5.3465533 2.0902296,5.4600207 2.3002734,5.5734882 2.5433672,5.6248815 2.7813627,5.6061358 3.0193582,5.58739 3.2514082,5.4985718 3.4410975,5.3536193 3.6307868,5.2086668 3.7774401,5.0080959 3.8580435,4.783382 c -0.027511,-0.014614 -0.061052,-0.017413 -0.090604,-0.00756 -0.029553,0.00985 -0.054706,0.032215 -0.067946,0.060412 -0.01143,0.024342 -0.014014,0.052031 -0.012283,0.078867 0.00173,0.026836 0.00757,0.053208 0.012283,0.079683 0.020221,0.1136057 0.019636,0.2314043 -0.00689,0.3437052 C 3.6660775,5.4507878 3.6131987,5.5574156 3.5358945,5.6430847 3.4585903,5.7287538 3.3565675,5.7928436 3.2444961,5.8203233 3.1324248,5.847803 3.010657,5.8377043 2.906745,5.7875303 2.8238979,5.7475275 2.7549512,5.6843883 2.6811054,5.6295188 2.6441825,5.602084 2.6056377,5.5764807 2.5639147,5.5571117 c -0.041723,-0.019369 -0.086841,-0.03241 -0.1328188,-0.033831 -0.056925,-0.00176 -0.114016,0.014651 -0.1623267,0.044812 -0.048311,0.030161 -0.087832,0.073793 -0.1147484,0.1239844 -0.053832,0.100382 -0.05539,0.2241428 -0.017079,0.331412 0.038312,0.1072692 0.1136454,0.1987331 0.2031629,0.269168 0.089517,0.070435 0.1929985,0.12113 0.2987903,0.1633503 0.2115835,0.084441 0.4396644,0.1391739 0.6239627,0.2730841 0.092149,0.066955 0.1718136,0.1541446 0.2168906,0.2587511 0.045077,0.1046064 0.053003,0.2275486 0.00835,0.332335 -0.042118,0.098828 -0.125876,0.173717 -0.2136625,0.2356394 C 3.1866451,7.6177393 3.091816,7.6705815 3.012445,7.742977 2.8851553,7.8590799 2.8041063,8.0223095 2.7786699,8.1927076 2.7532336,8.3631058 2.7819463,8.5398 2.8508307,8.697716 c 0.1377688,0.3158322 0.4271365,0.5458267 0.7429631,0.6836082 0.1230285,0.053672 0.251486,0.095438 0.3699495,0.1585497 0.1997298,0.1064067 0.3627304,0.2687371 0.5284991,0.4227992 0.1132159,0.1052209 0.229597,0.2081259 0.3270935,0.3280579 0.097496,0.119932 0.1762406,0.259342 0.2014054,0.411841 0.011525,0.06984 0.011611,0.141575 0,0.2114 -0.034265,0.206064 -0.1676555,0.38354 -0.3237357,0.522376 -0.1560802,0.138836 -0.3367512,0.246778 -0.5031126,0.373113 -0.1663613,0.126334 -0.3227469,0.277229 -0.4035718,0.469853 -0.040412,0.09631 -0.060706,0.201951 -0.051288,0.305972 0.00942,0.104022 0.049494,0.206179 0.1190104,0.284132 0.046754,0.05243 0.1052716,0.09282 0.1567181,0.140649 0.025723,0.02392 0.049811,0.04987 0.06903,0.07926 0.019219,0.0294 0.033492,0.06242 0.038502,0.09719 0.00672,0.04666 -0.00335,0.09401 -0.00289,0.141144 2.261e-4,0.02357 0.00317,0.04739 0.01188,0.06929 0.00871,0.0219 0.023563,0.04184 0.043864,0.05382 0.024459,0.01442 0.054022,0.01614 0.082166,0.01991 0.014072,0.0019 0.028161,0.0044 0.041446,0.0094 0.013285,0.005 0.025814,0.01266 0.034938,0.02354 0.0088,0.0105 0.014119,0.02364 0.016476,0.03713 0.00236,0.01349 0.00187,0.02736 -2.94e-5,0.04093 -0.00379,0.02713 -0.013109,0.05329 -0.016447,0.08049 -0.00414,0.0337 0.00117,0.06837 0.014212,0.09972 0.013039,0.03135 0.033697,0.05936 0.059079,0.08192 0.050763,0.0451 0.1193476,0.06736 0.1872311,0.069 0.067884,0.0016 0.13517,-0.01617 0.1973503,-0.04345 0.06218,-0.02729 0.1197859,-0.06388 0.1763274,-0.101483 0.085651,-0.05696 0.1701715,-0.116958 0.2642494,-0.15855 0.1383902,-0.06118 0.2956374,-0.07997 0.4440047,-0.05026 0.1483673,0.0297 0.2869959,0.108206 0.3866447,0.222071 0.099649,0.113866 0.1592596,0.262687 0.1629227,0.413954 0.00366,0.151268 -0.04924,0.303726 -0.1479735,0.418386 -0.1153044,0.133904 -0.282345,0.209872 -0.4227991,0.3171 -0.2283942,0.174365 -0.3817932,0.427451 -0.5813492,0.634199 -0.2005174,0.207744 -0.4558321,0.371118 -0.7398986,0.422799 -0.1399674,0.02546 -0.2846061,0.02374 -0.4222161,0.05984 -0.068805,0.01805 -0.1357983,0.04583 -0.1927122,0.0885 -0.056914,0.04267 -0.1033837,0.100986 -0.1249706,0.168764 -0.026988,0.08474 -0.013833,0.176401 0,0.26425 0.1158513,0.735721 0.2620958,1.482143 0.1585498,2.219696 -0.1125318,0.801559 -0.5126176,1.534995 -0.6870489,2.325396 -0.1225148,0.555151 -0.1308732,1.137956 0,1.691197 0.060179,0.254393 0.1491544,0.501431 0.205477,0.756705 0.056323,0.255275 0.07894,0.524933 0.00592,0.775943 -0.086976,0.298995 -0.2993451,0.542255 -0.499234,0.781016 -0.1998889,0.238762 -0.3996253,0.49754 -0.4520644,0.804481 -0.02085,0.122043 -0.017254,0.247346 0,0.369949 0.017711,0.125852 0.050209,0.250852 0.1098691,0.363071 0.05966,0.112219 0.1479021,0.211392 0.2600804,0.271128 0.079825,0.04251 0.1692251,0.06405 0.2587347,0.07698 0.08951,0.01292 0.1800096,0.01763 0.2697642,0.02872 0.2127976,0.02631 0.4204788,0.08842 0.6341991,0.105699 0.3342201,0.02702 0.6685584,-0.05699 0.981554,-0.177265 0.3129957,-0.120279 0.6107964,-0.276881 0.9210427,-0.404083 0.2702226,-0.110792 0.5537729,-0.19987 0.8455986,-0.211401 0.3952574,-0.01562 0.7801279,0.11084 1.162698,0.211401 0.1378216,0.03623 0.2772591,0.0695 0.4078852,0.12646 0.1306262,0.05696 0.2536309,0.139881 0.334572,0.257166 0.040471,0.05864 0.069814,0.125365 0.082272,0.195519 0.012458,0.07015 0.00771,0.143734 -0.016922,0.210594 -0.024627,0.06686 -0.06949,0.126647 -0.1287415,0.166221 -0.059251,0.03957 -0.1328679,0.05817 -0.2034172,0.04819 -0.026874,-0.0038 -0.05311,-0.01158 -0.080094,-0.0145 -0.013492,-0.0015 -0.027185,-0.0017 -0.040591,4.14e-4 -0.013406,0.0021 -0.026545,0.0066 -0.037865,0.01409 -0.01207,0.008 -0.021821,0.0192 -0.029037,0.03174 -0.00722,0.01254 -0.011968,0.02639 -0.015096,0.04052 -0.00626,0.02825 -0.00611,0.05747 -0.00872,0.08629 -0.01237,0.136578 -0.089194,0.263769 -0.197741,0.347579 -0.1085473,0.08381 -0.2464918,0.125646 -0.3836079,0.128068 -0.070505,0.0012 -0.1412769,-0.0074 -0.2113997,0 -0.1382933,0.01467 -0.2619171,0.09025 -0.3767212,0.168742 -0.114804,0.07849 -0.2293564,0.163367 -0.3631777,0.201209 -0.1538024,0.04349 -0.3175547,0.0206 -0.4757887,-0.002 -0.1582341,-0.02256 -0.3224462,-0.04407 -0.4755096,0.002 -0.1450683,0.04362 -0.2651792,0.143397 -0.3863534,0.234306 -0.060587,0.04545 -0.122714,0.08939 -0.1901606,0.12386 -0.067447,0.03447 -0.1406768,0.05935 -0.2162346,0.06463 -0.07035,0.0049 -0.1412423,-0.0072 -0.2113997,0 -0.1102922,0.01125 -0.2119183,0.07012 -0.2904614,0.148365 -0.078543,0.07824 -0.1360768,0.175041 -0.1851878,0.274434 -0.150541,0.304672 -0.2289492,0.645361 -0.2215097,0.985114 0.00744,0.339753 0.101231,0.677906 0.2743597,0.970334 0.069606,0.117569 0.151671,0.227695 0.2159246,0.348273 0.064254,0.120578 0.1107633,0.255332 0.1011748,0.391624 -0.00901,0.128115 -0.068656,0.250849 -0.1591072,0.342026 -0.090451,0.09118 -0.210403,0.151179 -0.3364641,0.175739 -0.1260612,0.02456 -0.2578515,0.01445 -0.3809063,-0.02232 -0.1230549,-0.03677 -0.2375308,-0.0997 -0.3390704,-0.178345 -0.1337783,-0.103609 -0.2495092,-0.242113 -0.2844159,-0.407682 -0.017453,-0.08278 -0.013637,-0.170766 0.016516,-0.249814 0.030154,-0.07905 0.087446,-0.148482 0.1621997,-0.188102 0.073617,-0.03902 0.1608373,-0.04788 0.2431552,-0.03501 0.082318,0.01286 0.1602525,0.04635 0.2324939,0.08786 0.068882,0.03958 0.1332685,0.08655 0.20172,0.12687 0.068452,0.04032 0.1422951,0.07432 0.2210795,0.08453 0.069956,0.0091 0.1408644,-9.43e-4 0.2113994,0 0.075442,0.001 0.1517221,0.01503 0.2187313,0.04971 0.067009,0.03467 0.1241882,0.09125 0.1512182,0.161691 0.014575,0.03798 0.020188,0.07883 0.033212,0.11737 0.00651,0.01927 0.014942,0.03805 0.026799,0.05457 0.011857,0.01653 0.027293,0.03078 0.045688,0.03946 0.024242,0.01144 0.052104,0.01264 0.078799,0.0102 0.026695,-0.0024 0.053012,-0.0083 0.079751,-0.0102 0.065091,-0.0046 0.1303472,0.01451 0.1875468,0.04592 0.0572,0.03141 0.1070555,0.07465 0.1533754,0.120616 0.09264,0.09193 0.1762366,0.198512 0.2932769,0.256262 0.088714,0.04377 0.1904207,0.05568 0.2891841,0.05 0.098763,-0.0057 0.1956951,-0.0281 0.2921648,-0.05 0.788431,-0.179056 1.5831128,-0.329199 2.3782461,-0.475649 0.2035417,-0.03749 0.4083105,-0.07486 0.6152616,-0.07728 0.2069511,-0.0024 0.4181559,0.03183 0.6002862,0.13013 0.206697,0.111561 0.3626085,0.297336 0.4991645,0.488443 0.136556,0.191107 0.26043,0.393577 0.426541,0.55964 0.08305,0.08303 0.176596,0.156506 0.281303,0.209692 0.104707,0.05319 0.220977,0.08565 0.338418,0.08561 0.117441,-5e-5 0.235928,-0.03368 0.331101,-0.102489 0.09517,-0.06881 0.165429,-0.173732 0.184619,-0.289595 0.01442,-0.08706 5.03e-4,-0.176005 0,-0.264247 -8.9e-4,-0.156219 0.04106,-0.311623 0.11426,-0.449633 0.0732,-0.13801 0.177109,-0.258819 0.298219,-0.357498 0.242221,-0.197358 0.547806,-0.30373 0.855919,-0.355567 0.192381,-0.03237 0.39144,-0.04464 0.581349,0 0.282987,0.06652 0.520224,0.251664 0.766286,0.406453 0.123031,0.07739 0.251262,0.148539 0.389419,0.193697 0.138157,0.04516 0.287446,0.06345 0.429792,0.03405 0.170498,-0.03521 0.319178,-0.135071 0.475649,-0.211399 0.122496,-0.05976 0.25192,-0.105927 0.368689,-0.176218 0.05839,-0.03515 0.113501,-0.07638 0.160001,-0.126197 0.0465,-0.04982 0.08426,-0.108485 0.105509,-0.173235 0.0224,-0.06827 0.02563,-0.144273 0,-0.211399 -0.02329,-0.061 -0.0715,-0.113343 -0.132791,-0.135861 -0.03064,-0.01126 -0.06412,-0.01502 -0.09638,-0.01002 -0.03226,0.005 -0.06322,0.01884 -0.08793,0.04018 -0.02531,0.02185 -0.04371,0.05119 -0.05437,0.08288 -0.01065,0.03169 -0.01373,0.06568 -0.01103,0.09901 0.0054,0.06666 0.03321,0.129439 0.0654,0.188056 0.175033,0.318723 0.494541,0.550862 0.848532,0.633997 0.35399,0.08314 0.737257,0.02013 1.054064,-0.158348 0.153808,-0.08665 0.291872,-0.198682 0.4228,-0.3171 0.146468,-0.132473 0.285184,-0.273753 0.438455,-0.398293 0.153271,-0.124539 0.323368,-0.233067 0.512843,-0.288756 0.246482,-0.07244 0.509778,-0.05158 0.765041,-0.02256 0.255262,0.02903 0.514317,0.06552 0.767607,0.02256 0.05312,-0.009 0.105794,-0.0215 0.159522,-0.02547 0.05373,-0.004 0.109531,0.0011 0.157577,0.02547 0.03599,0.01826 0.06635,0.04688 0.08856,0.08058 0.02222,0.0337 0.03645,0.07236 0.0436,0.11208 0.0143,0.07945 5.27e-4,0.161524 -0.02263,0.238855 -0.02316,0.07733 -0.05558,0.1516 -0.07987,0.228583 -0.02429,0.07698 -0.04044,0.158354 -0.02966,0.238354 0.01466,0.108735 0.07828,0.20596 0.157259,0.282124 0.07897,0.07617 0.173243,0.1342 0.26554,0.193526 0.1333,0.08568 0.268106,0.177047 0.4228,0.211399 0.1382,0.03069 0.281875,0.01347 0.422799,0 0.350009,-0.03345 0.702236,-0.04287 1.051187,-0.08597 0.348952,-0.0431 0.698153,-0.121492 1.009959,-0.283978 0.154652,-0.08059 0.303594,-0.182959 0.47565,-0.2114 0.171939,-0.02842 0.348551,0.02128 0.504789,0.09848 0.156238,0.0772 0.297387,0.181279 0.446509,0.271465 0.35793,0.216468 0.767244,0.353055 1.185179,0.370457 0.417935,0.0174 0.843724,-0.08754 1.193067,-0.317607 0.123015,-0.08102 0.235748,-0.176506 0.354397,-0.26379 0.118649,-0.08728 0.245118,-0.167267 0.385502,-0.211859 0.092,-0.02922 0.188286,-0.0427 0.281092,-0.06925 0.0928,-0.02655 0.185018,-0.06849 0.247406,-0.142148 0.05789,-0.06834 0.08529,-0.161568 0.07368,-0.250374 -0.01161,-0.08881 -0.06204,-0.171826 -0.135443,-0.223138 -0.07341,-0.05131 -0.16866,-0.07015 -0.25609,-0.05072 -0.08743,0.01943 -0.165718,0.0768 -0.210644,0.154282 -0.03194,0.05509 -0.04717,0.11929 -0.04635,0.182967 8.24e-4,0.06368 0.01741,0.126765 0.04534,0.183997 0.05586,0.114462 0.155157,0.203212 0.26526,0.267237 0.151356,0.08801 0.326692,0.133755 0.501776,0.133039 0.175085,-7.17e-4 0.349514,-0.04766 0.502371,-0.133039 0.125215,-0.06994 0.234814,-0.164215 0.351779,-0.24722 0.116964,-0.083 0.245973,-0.156485 0.38812,-0.175581 0.114431,-0.01537 0.230156,0.0054 0.34474,0.01956 0.114584,0.01419 0.234307,0.02126 0.342309,-0.01956 0.106731,-0.04034 0.191389,-0.123592 0.26425,-0.2114 0.150624,-0.181523 0.265854,-0.393889 0.324671,-0.622316 0.05882,-0.228426 0.06006,-0.472957 -0.0076,-0.698931 -0.05352,-0.178822 -0.148029,-0.342155 -0.222097,-0.513489 -0.07407,-0.171335 -0.128459,-0.359872 -0.095,-0.543508 0.02434,-0.13359 0.09445,-0.256137 0.18588,-0.356531 0.09143,-0.100393 0.203627,-0.179945 0.321081,-0.248086 0.234908,-0.136282 0.495593,-0.231042 0.708585,-0.399533 0.178038,-0.14084 0.317056,-0.331369 0.392941,-0.54532 0.07588,-0.213951 0.08783,-0.450743 0.02986,-0.670226 -0.02576,-0.09753 -0.06475,-0.190966 -0.09771,-0.286305 -0.03296,-0.09534 -0.06013,-0.194173 -0.06084,-0.295045 -5.04e-4,-0.07106 0.01213,-0.141478 0.01855,-0.21225 0.0064,-0.07077 0.0063,-0.143981 -0.01855,-0.210549 -0.01775,-0.0475 -0.04761,-0.0899 -0.08325,-0.125966 -0.03565,-0.03606 -0.07703,-0.06603 -0.120151,-0.09271 -0.08625,-0.05335 -0.180263,-0.09425 -0.261977,-0.154314 -0.04086,-0.03003 -0.07855,-0.06493 -0.108009,-0.106209 -0.02945,-0.04127 -0.05047,-0.08919 -0.05644,-0.139546 -0.006,-0.05035 0.0038,-0.103148 0.03108,-0.145872 0.02731,-0.04272 0.07282,-0.07438 0.1231,-0.08098 0.03497,-0.0046 0.07052,0.0026 0.105701,0 0.03466,-0.0026 0.06829,-0.01478 0.09772,-0.03325 0.02943,-0.01847 0.05476,-0.0431 0.0758,-0.07075 0.04209,-0.05531 0.0668,-0.12168 0.08803,-0.187858 0.02123,-0.06618 0.03978,-0.133749 0.07166,-0.195505 0.03188,-0.06176 0.07903,-0.118365 0.142429,-0.146834 0.06642,-0.02983 0.143663,-0.02614 0.2114,-0.05285 0.04251,-0.01677 0.08003,-0.04528 0.10931,-0.08037 0.02928,-0.03509 0.05043,-0.07662 0.06376,-0.120336 0.02666,-0.08742 0.02201,-0.181766 0.0038,-0.271325 -0.01825,-0.08956 -0.0496,-0.175813 -0.07624,-0.263241 -0.02665,-0.08743 -0.04879,-0.177488 -0.04774,-0.26888 8.12e-4,-0.0707 0.01542,-0.142402 0,-0.2114 -0.0114,-0.051 -0.03916,-0.09784 -0.07671,-0.13418 -0.03755,-0.03634 -0.08461,-0.06233 -0.134693,-0.07722 -0.0949,-0.02822 -0.199707,-0.01617 -0.289337,0.02587 -0.08963,0.04205 -0.164336,0.112739 -0.218224,0.19579 -0.107776,0.166103 -0.131466,0.373138 -0.12664,0.571084 0.0022,0.08999 0.0098,0.180444 0.0333,0.267334 0.02353,0.08689 0.06372,0.170487 0.125099,0.236333 0.06138,0.06585 0.14513,0.112854 0.234795,0.120838 0.04483,0.004 0.09066,-0.0018 0.132634,-0.01802 0.04198,-0.01624 0.08,-0.04305 0.108374,-0.07799 0.03911,-0.04814 0.05943,-0.110348 0.10325,-0.154245 0.02191,-0.02195 0.05021,-0.03884 0.0811,-0.04162 0.01544,-0.0014 0.0313,8.3e-4 0.04546,0.0071 0.01416,0.0063 0.02655,0.01682 0.03444,0.03017 0.0072,0.0121 0.01049,0.0263 0.0102,0.04035 -2.93e-4,0.01405 -0.0041,0.02793 -0.0105,0.04046 -0.01271,0.02507 -0.03493,0.04424 -0.05925,0.05831 -0.04865,0.02815 -0.107033,0.03835 -0.151842,0.07228 -0.0458,0.03468 -0.07159,0.09021 -0.08438,0.14621 -0.01279,0.056 -0.01425,0.113883 -0.02132,0.17089 -0.02165,0.17464 -0.09731,0.341666 -0.211399,0.475649 -0.106181,0.124694 -0.243483,0.219995 -0.389436,0.294297 -0.145953,0.0743 -0.30111,0.128616 -0.456165,0.181352 -0.102795,0.03496 -0.206494,0.0695 -0.313999,0.08472 -0.107505,0.01522 -0.220106,0.0102 -0.320199,-0.03187 -0.117337,-0.04933 -0.209581,-0.146353 -0.275441,-0.255272 -0.06586,-0.10892 -0.108006,-0.230214 -0.149446,-0.350563 -0.04144,-0.120348 -0.0831,-0.241758 -0.148119,-0.35118 -0.06502,-0.109423 -0.156027,-0.207409 -0.272592,-0.258533 -0.07459,-0.03271 -0.15698,-0.04528 -0.230566,-0.08019 -0.03679,-0.01745 -0.07142,-0.04076 -0.09742,-0.0721 -0.02601,-0.03134 -0.04288,-0.07126 -0.04196,-0.111968 4.05e-4,-0.01783 0.0041,-0.0354 0.0059,-0.05315 0.0018,-0.01775 0.0014,-0.03629 -0.0059,-0.05255 -0.0081,-0.01806 -0.02443,-0.03177 -0.04291,-0.03888 -0.01848,-0.0071 -0.03896,-0.008 -0.05852,-0.0049 -0.03912,0.0062 -0.07395,0.0273 -0.109961,0.0438 -0.104283,0.04778 -0.221991,0.05752 -0.336674,0.05518 -0.114684,-0.0023 -0.22916,-0.01606 -0.343803,-0.01223 -0.114644,0.0038 -0.232071,0.02667 -0.327315,0.09059 -0.04762,0.03196 -0.08891,0.07401 -0.117,0.124014 -0.02809,0.05 -0.0426,0.10809 -0.03791,0.165251 0.0042,0.05152 0.02399,0.101409 0.05466,0.143027 0.03066,0.04162 0.07201,0.07501 0.118313,0.098 0.09261,0.04597 0.202635,0.04932 0.302677,0.02322 0.123177,-0.03213 0.231983,-0.105983 0.32514,-0.19274 0.09316,-0.08676 0.172671,-0.186853 0.256207,-0.282909 0.13923,-0.160097 0.290437,-0.30983 0.422799,-0.47565 0.49658,-0.622107 0.696806,-1.429504 0.79275,-2.219696 0.032,-0.263522 0.05369,-0.532777 0,-0.792748 -0.07221,-0.349631 -0.274329,-0.655756 -0.430628,-0.976733 -0.07815,-0.160488 -0.145809,-0.32761 -0.179088,-0.502985 -0.03328,-0.175375 -0.03088,-0.360194 0.02837,-0.528579 0.08603,-0.244512 0.287085,-0.437083 0.518397,-0.554057 0.231312,-0.116974 0.491635,-0.164993 0.750002,-0.185842 0.151503,-0.01223 0.304565,-0.01571 0.452915,-0.0488 0.14835,-0.03309 0.29468,-0.09927 0.392683,-0.21545 0.06165,-0.07309 0.101251,-0.162299 0.131171,-0.253118 0.02992,-0.09082 0.05094,-0.184358 0.08023,-0.275382 0.04114,-0.127844 0.09832,-0.24991 0.158549,-0.369949 0.114579,-0.228371 0.240908,-0.451222 0.340439,-0.686541 0.09953,-0.23532 0.172276,-0.486024 0.17283,-0.741526 5.55e-4,-0.255502 -0.07648,-0.517162 -0.246656,-0.707746 -0.08509,-0.09529 -0.192422,-0.171402 -0.312363,-0.215386 -0.119941,-0.04398 -0.252439,-0.0552 -0.377049,-0.02705 -0.07845,0.01773 -0.154502,0.05156 -0.213708,0.105995 -0.0592,0.05444 -0.100301,0.130736 -0.103389,0.211105 -0.0019,0.04914 0.01036,0.09855 0.03366,0.141862 0.0233,0.04331 0.05747,0.08052 0.09779,0.10868 0.08063,0.05633 0.18405,0.0751 0.281558,0.06221 0.09751,-0.0129 0.189379,-0.05563 0.269736,-0.112343 0.08036,-0.05672 0.150029,-0.127191 0.215707,-0.200406 0.08532,-0.09511 0.165949,-0.197683 0.211399,-0.3171 0.02587,-0.06798 0.03973,-0.139852 0.05285,-0.2114 0.150321,-0.819567 0.220348,-1.651864 0.26425,-2.483945 0.0046,-0.08805 0.009,-0.176533 0,-0.26425 -0.02711,-0.264414 -0.17566,-0.505661 -0.369948,-0.687049 -0.228112,-0.212966 -0.522439,-0.353434 -0.831117,-0.399342 -0.308678,-0.04591 -0.630393,0.0026 -0.912929,0.135093 -0.308404,0.144658 -0.563231,0.382485 -0.79275,0.634199 -0.08366,0.09175 -0.165047,0.186301 -0.231675,0.291076 -0.06663,0.104776 -0.118384,0.220561 -0.138274,0.343123 -0.0059,0.03615 -0.0089,0.07273 -0.01571,0.108723 -0.0068,0.03599 -0.01743,0.07181 -0.03714,0.102676 -0.01953,0.0306 -0.04758,0.05547 -0.07959,0.07261 -0.03201,0.01714 -0.06787,0.02666 -0.104087,0.02924 -0.07243,0.0052 -0.144741,-0.01718 -0.208532,-0.05187 -0.127582,-0.06937 -0.223862,-0.185517 -0.347692,-0.261384 -0.176274,-0.107998 -0.3931,-0.125963 -0.581347,-0.2114 -0.179833,-0.08162 -0.328931,-0.22431 -0.4312,-0.393256 -0.102269,-0.168945 -0.159074,-0.363214 -0.178941,-0.5597 -0.03973,-0.392973 0.06465,-0.785604 0.187342,-1.1610404 0.06574,-0.2011476 0.137701,-0.4019601 0.245736,-0.5839214 0.108034,-0.1819613 0.254992,-0.3455835 0.442152,-0.4443374 0.09358,-0.049377 0.196462,-0.081933 0.301868,-0.091146 0.105406,-0.00921 0.213298,0.00525 0.311018,0.045822 0.09772,0.040572 0.184908,0.1076009 0.245883,0.194073 0.06098,0.086472 0.095,0.1924054 0.09169,0.2981616 -0.0028,0.089552 -0.03212,0.1776578 -0.08063,0.2529862 -0.04851,0.075328 -0.115842,0.1379579 -0.192725,0.1839627 -0.153767,0.09201 -0.341844,0.1157789 -0.519391,0.09155 C 29.529664,9.5476199 29.229401,9.3381734 29.056991,9.0525781 28.88458,8.7669828 28.83807,8.4120846 28.912859,8.0869746 c 0.07479,-0.32511 0.266564,-0.6189676 0.52209,-0.833436 0.255525,-0.2144683 0.572375,-0.3510411 0.900902,-0.4090082 0.105548,-0.018623 0.212513,-0.029418 0.317098,-0.05285 0.127449,-0.028554 0.251232,-0.076161 0.361224,-0.1465907 0.109991,-0.07043 0.205959,-0.1641055 0.272977,-0.2762087 0.07053,-0.1179851 0.107524,-0.2529102 0.133989,-0.3878 0.02646,-0.1348899 0.04325,-0.2717986 0.07741,-0.4049486 0.03188,-0.1242636 0.07871,-0.2445336 0.105699,-0.3699494 0.05401,-0.2509438 0.0266,-0.5116085 -0.0074,-0.7660417 -0.03396,-0.2544333 -0.07432,-0.5115401 -0.04549,-0.7666055 0.008,-0.070583 0.02104,-0.1435531 0,-0.2113997 -0.01713,-0.055258 -0.05577,-0.1018054 -0.100645,-0.1383127 -0.04488,-0.036507 -0.09618,-0.064109 -0.146652,-0.092381 -0.05047,-0.028272 -0.100938,-0.057788 -0.14314,-0.09736 -0.0422,-0.039572 -0.076,-0.090482 -0.08521,-0.1475964 -0.0084,-0.052263 0.004,-0.1057636 0,-0.1585497 -0.0041,-0.053993 -0.026,-0.1064851 -0.06146,-0.1474058 -0.03546,-0.040921 -0.08431,-0.070048 -0.13717,-0.081795 -0.05286,-0.011747 -0.109446,-0.00605 -0.158903,0.016001 -0.04946,0.022049 -0.09152,0.060331 -0.11811,0.1075004 z"
     id="path2239"
     inkscape:connector-curvature="0"
     inkscape:path-effect="#path-effect2241"
     inkscape:original-d="m 30.600099,2.7222354 c -0.0044,-1.1261131 -0.971254,-1.5326473 -2.166848,-1.5326473 -0.06722,0 -0.380013,-0.042785 -0.422799,0 -0.07047,0.070467 -0.193783,0.088083 -0.26425,0.1585497 -0.129127,0.129128 0.135234,0.4989666 0.26425,0.3699494 0.221216,-0.2212146 -0.264371,-0.4229202 -0.3171,-0.4756492 -0.03523,-0.035233 -0.01762,-0.1233164 -0.05285,-0.1585497 -0.03737,-0.037371 -0.311248,0 -0.369951,0 -0.895819,0 -1.696239,0.2164418 -2.166846,0.6870488 -0.0965,0.096499 -0.799658,0 -0.951298,0 -0.235458,0 -0.85966,-0.4897099 -1.056998,-0.6870488 -0.05285,-0.05285 -0.2114,0 -0.26425,-0.05285 -0.256966,-0.25696621 -0.95639,-0.31200748 -1.215548,-0.0528499 -0.02642,0.026425 -0.132125,-0.026425 -0.15855,0 -0.04792,0.0479211 -0.118228,0.3497885 -0.158549,0.3699493 -0.136255,0.068128 -0.409878,0.1456285 -0.528499,0.2642496 -0.03192,0.031916 -0.266981,0 -0.3171,0 -0.126352,0 -0.712341,0.080407 -0.792749,0 C 19.382668,1.3348885 18.926834,1.192871 18.497468,0.97818846 18.004245,0.73157672 16.916612,1.3963469 16.753421,1.5595375 c -0.08643,0.086436 -0.319069,0.054819 -0.422799,0.1585497 -0.0095,0.00949 -0.630383,-0.1566419 -0.739899,-0.2113996 C 15.355723,1.3891874 14.846691,1.3440042 14.639425,1.1367382 14.619571,1.1168836 12.509154,0.95990104 12.366879,1.0310384 12.132992,1.1479817 12.19414,1.309477 12.04978,1.4538376 11.80751,1.6961067 11.729915,2.349521 11.99693,2.6165357 c 0.02491,0.024914 0.08079,-0.024914 0.105699,0 0.05285,0.05285 0,0.2113997 0.05285,0.2642494 0.220667,0.220667 0.497434,0.5284992 0.845599,0.5284992 0.603793,0 -0.17566,-0.722788 -0.475649,-0.4227992 -0.02491,0.024913 0.02491,0.080786 0,0.1056997 -0.08808,0.088083 -0.281866,0.070466 -0.36995,0.1585497 -0.291873,0.2918738 -0.615279,0.7209793 -0.898448,1.0041484 -0.04063,0.040628 -0.774058,0.334179 -0.845599,0.3699494 -0.06747,0.033735 -0.8254404,-0.4026414 -0.8455983,-0.4227994 -0.026424,-0.026424 0.026424,-0.1321248 0,-0.1585498 C 9.2093439,3.6869933 9.1226908,3.177541 8.7730851,2.8279354 8.6661922,2.7210424 7.2371981,2.6197751 7.081888,2.7750854 6.9829129,2.8740605 6.7913106,2.9599627 6.7119385,3.0393348 c -0.00528,0.00529 0.024665,0.1832131 -0.05285,0.1057 C 6.548717,3.0346631 6.4387874,2.8718837 6.3419891,2.7750854 6.2382589,2.6713549 6.0056256,2.7029713 5.9191899,2.6165357 5.653186,2.3505317 4.6720345,1.9610943 4.2808427,2.3522861 4.2191845,2.4139443 4.0254015,2.3434778 3.9637433,2.405136 3.8096087,2.5592706 3.4065281,2.6981017 3.3823941,2.7222354 c -0.079275,0.079275 -0.1849744,0.132125 -0.2642494,0.2113997 -0.044042,0.044042 -0.00881,0.167358 -0.05285,0.2113997 -0.024913,0.024913 -0.080786,-0.024913 -0.1056997,0 -0.2221731,0.222173 1.1850926,1.3517029 0.8984485,1.6383472 -0.00328,0.1488115 -0.1191577,0.013457 -0.1585499,0.05285 -0.024432,0.024432 0.015954,0.1266402 0,0.1585497 C 3.6336224,5.1265244 3.0449038,5.7184508 2.906745,5.7875303 2.7547252,5.8635404 2.2307787,5.723598 2.4310959,5.5232806 2.7693746,5.1850021 4.3050193,6.5032524 3.4880941,7.3201775 3.3598172,7.4484544 3.1230786,7.5217096 3.012445,7.742977 2.6756486,8.4165697 3.3245821,9.1121125 3.5937938,9.3813242 c 0.091194,0.091194 0.2942813,0.082882 0.3699495,0.1585497 0.1527215,0.1527215 0.2887901,0.3029447 0.5284991,0.4227992 0.2994523,0.1497259 0.3642022,0.5756019 0.5284989,0.7398989 0.020593,0.02059 0,0.179148 0,0.2114 0,0.906885 -1.4420107,1.396821 -1.1626978,1.955446 0.082953,0.165905 0.1646992,0.217549 0.2642495,0.3171 0.022148,0.02215 0.033752,0.226053 0.05285,0.264249 0.055522,0.111045 0.1046729,-0.001 0.1585497,0.05285 0.026424,0.02642 -0.026424,0.132125 0,0.15855 0.051144,0.05114 0.5257957,0.159901 0.6341989,0.1057 0.064455,-0.03223 0.2260238,-0.196776 0.2642494,-0.15855 0.1568093,0.156809 1.0241739,0.646997 0.8455986,1.004148 -0.097291,0.194582 -0.3115201,0.20582 -0.4227991,0.3171 -0.1876251,0.187624 -0.374196,0.530622 -0.5813492,0.634199 -0.2395246,0.119762 -0.5751825,0.258083 -0.7398986,0.422799 -0.071439,0.07144 -0.5895015,0.166702 -0.7398989,0.317099 -0.044041,0.04404 0.044042,0.220208 0,0.26425 -0.4447759,0.444776 0.3494985,2.028747 0.1585498,2.219696 -0.3350266,0.335027 -1.3403148,1.67213 -0.6870489,2.325396 0.018463,0.01846 0,1.52585 0,1.691197 0,0.175145 0.3435832,1.400464 0.2113997,1.532648 -0.4857237,0.485723 -0.9512984,0.714343 -0.9512984,1.585497 0,0.08947 -0.039149,0.291651 0,0.369949 0.1041222,0.208244 0.2300476,0.494298 0.3699495,0.634199 0.09111,0.09111 0.42442,0.0016 0.5284989,0.105701 0.111715,0.111715 0.5281139,-2.64e-4 0.6341991,0.105699 0.3850225,0.385021 1.7673946,-0.446146 1.9025967,-0.581348 0.080922,-0.08092 0.7115805,-0.144392 0.8455986,-0.211401 0.3666681,-0.183334 0.9801112,-0.153774 1.162698,0.211401 0.026326,0.05265 0.6022351,0.877562 0.4756492,1.004147 -0.026424,0.02643 -0.1321247,-0.02643 -0.1585497,0 -0.017616,0.01762 -0.035233,0.140933 -0.05285,0.158551 -0.1339874,0.133985 -0.4252114,0.319511 -0.5813489,0.475647 -0.035233,0.03523 -0.1761665,-0.03523 -0.2113997,0 -0.1962825,0.196284 -0.481769,0.240885 -0.7398989,0.369951 -0.2006891,0.100343 -0.7987734,-0.152524 -0.9512983,0 -0.1922553,0.192254 -0.6172513,0.247301 -0.7927486,0.422799 -0.035233,0.03523 -0.1761665,-0.03524 -0.2113997,0 -0.1716781,0.171677 -0.3061248,0.253275 -0.4756492,0.422799 -0.2823308,0.282331 -0.1351394,1.767456 0.05285,1.955448 0.2352265,0.235225 0.616303,0.739897 0.3170994,0.739897 -0.083784,0 -1.1055432,0.427103 -1.215548,0.3171 -0.029077,-0.02908 -0.1747438,-0.776555 -0.1056997,-0.845598 0.086072,-0.08607 0.4037187,0.05285 0.4756491,0.05285 0.206383,0 0.3189812,0.107583 0.4227995,0.2114 0.035233,0.03523 0.1761662,-0.03523 0.2113994,0 0.096891,0.09689 0.273058,0.114509 0.3699495,0.211399 0.05285,0.05285 0.05285,0.158552 0.1056997,0.211402 0.026424,0.02643 0.132125,-0.02643 0.1585497,0 0.1272958,0.127294 0.3844983,0.297948 0.6341991,0.422799 0.1550263,0.07751 0.4263224,-0.07752 0.5813489,0 0.7068318,0.353415 2.0262743,-0.123677 2.3782461,-0.475649 0.1659676,-0.165968 1.0573574,0.05285 1.2155478,0.05285 0.1643806,0 1.9338605,1.078582 2.0611465,0.951296 0.04218,-0.04218 -0.02772,-0.208801 0,-0.264247 0.369545,-0.739092 0.197735,-1.162698 1.268398,-1.162698 0.09261,0 0.522413,-0.05894 0.581349,0 0.18342,0.18342 1.336803,0.882893 1.585497,0.634198 0.115108,-0.115109 0.284683,-0.115916 0.475649,-0.211399 0.298286,-0.149143 0.47281,-0.314259 0.634199,-0.47565 0.03523,-0.03523 -0.03523,-0.176167 0,-0.211399 0.448479,-0.448479 -0.317099,-0.59536 -0.317099,-0.105701 0,0.08947 -0.03915,0.291653 0,0.369951 0.13183,0.26366 1.429378,0.712258 1.902596,0.475649 0.04741,-0.02371 0.374562,-0.268861 0.4228,-0.3171 0.266215,-0.266216 0.68322,-0.418971 0.951298,-0.687049 0.01673,-0.01672 1.382809,0 1.532648,0 0.05012,0 0.285184,-0.03192 0.317099,0 0.149741,0.149741 -0.149741,0.748707 0,0.898448 0.100604,0.100605 0.303749,0.356598 0.422799,0.47565 0.04762,0.04762 0.348364,0.136964 0.4228,0.211399 0.01754,0.01754 0.405256,0.01754 0.422799,0 0.290141,-0.290142 1.908645,-0.217448 2.061146,-0.369948 0.08513,-0.08513 0.198673,-0.349888 0.47565,-0.2114 0.303863,0.151932 0.652864,0.220732 0.951298,0.369949 0.117171,0.05858 2.269822,0.107061 2.378246,0.05285 0.09144,-0.04572 0.695132,-0.430884 0.739899,-0.475649 0.0132,-0.0132 0.407853,-0.09076 0.528498,-0.2114 0.107206,-0.107206 -0.339818,-0.55863 -0.528498,-0.369951 -0.203507,0.203507 0.104921,0.634201 0.26425,0.634201 0.24342,0 0.791155,0.106495 1.004147,0 0.247184,-0.123592 0.406667,-0.311724 0.739899,-0.422801 0.136697,-0.04556 0.590013,0.09704 0.687049,0 0.07795,-0.07795 0.19947,-0.146619 0.26425,-0.2114 0.07364,-0.07364 0.425315,-1.104818 0.317098,-1.321247 -0.103603,-0.207208 -0.437851,-0.815493 -0.317098,-1.056997 0.219723,-0.439449 1.023541,-0.620136 1.215546,-1.00415 0.139116,-0.278225 0.29169,-1.084437 0.422802,-1.215546 0.108275,-0.108278 -0.112289,-0.488828 -0.158552,-0.58135 -0.04456,-0.08912 0.06775,-0.355054 0,-0.422799 -0.110728,-0.110729 -0.736092,-0.585155 -0.475649,-0.845599 0.02492,-0.02491 0.08079,0.02491 0.105701,0 0.132681,-0.132682 0.287909,-0.446459 0.475649,-0.634199 0.02421,-0.02421 0.190535,-0.01112 0.2114,-0.05285 0.165947,-0.331895 0.418666,-0.638332 0.05285,-1.004148 -0.02551,-0.02549 0.03003,-0.196384 0,-0.2114 -0.187841,-0.09392 -0.104743,-0.104741 -0.211399,-0.211399 -0.25227,-0.252268 -0.866429,0.560521 -0.634201,0.792749 0.197945,0.197945 0.319146,0.370972 0.634201,0.528499 0.06329,0.03164 0.264247,-0.159778 0.264247,-0.15855 0,0.003 -0.195268,0.195269 -0.211399,0.211399 -0.05407,0.05407 -0.04162,0.253023 -0.105699,0.3171 -0.108066,0.108065 -0.130082,0.394331 -0.211399,0.475649 -0.226727,0.226727 -0.514088,0.309894 -0.845601,0.475649 -0.07155,0.03577 -0.570431,0.116616 -0.634198,0.05285 -0.308448,-0.308448 -0.548767,-0.918718 -0.845598,-1.215548 -0.07964,-0.07964 -0.263681,-0.15798 -0.369948,-0.264249 -0.02492,-0.02491 0.02492,-0.08079 0,-0.1057 -0.02551,-0.02549 -0.196384,0.03003 -0.2114,0 -0.173418,-0.346834 -1.364398,0.2211 -1.162698,0.422799 0.123315,0.123317 0.352333,0.140933 0.47565,0.26425 0.110863,0.110864 0.555178,-0.423312 0.581347,-0.475649 0.04197,-0.08395 0.338911,-0.39176 0.422799,-0.47565 0.120907,-0.120906 0.79275,-2.057449 0.79275,-2.219696 0,-0.222888 0.06843,-0.587465 0,-0.792748 -0.09014,-0.27043 -0.861819,-1.727827 -0.58135,-2.008297 0.362879,-0.362879 0.948367,-0.419867 1.268399,-0.739899 0.11643,-0.116431 0.695958,-0.11461 0.845598,-0.264249 0.10746,-0.107462 0.103939,-0.421038 0.211399,-0.5285 0.09798,-0.09798 0.07715,-0.207155 0.158549,-0.369949 0.45756,-0.915117 0.0669,-1.888548 -0.422799,-2.378246 -0.21791,-0.217911 -0.520255,0.113942 -0.317097,0.3171 0.03371,0.03371 0.888531,0.01983 0.898448,0 0.07561,-0.151235 0.09069,-0.196396 0.211399,-0.3171 0.04687,-0.04687 0.02101,-0.147699 0.05285,-0.2114 0.346686,-0.693372 0.675955,-1.660535 0.26425,-2.483945 -0.02772,-0.05545 0.04218,-0.222067 0,-0.26425 -0.147558,-0.14756 -0.184375,-0.501476 -0.369948,-0.687049 -0.171527,-0.171526 -1.409393,-0.431576 -1.744046,-0.264249 -0.30698,0.153489 -0.51843,0.359879 -0.79275,0.634199 -0.14695,0.14695 -0.189675,0.453923 -0.369949,0.634199 -0.03465,0.03465 -0.02638,0.184921 -0.05285,0.211399 -0.174943,0.174942 -0.621184,-0.152041 -0.7399,-0.211399 -0.163837,-0.08192 -0.478504,-0.108555 -0.581347,-0.2114 -0.144563,-0.144562 -0.647595,-1.664406 -0.422799,-2.1139964 0.273685,-0.5473713 1.050568,-1.1691258 1.638345,-0.5813489 0.295463,0.295461 -0.742172,0.5790746 -0.792747,0.5284992 -0.633254,-0.6332525 0.0965,-2.3690431 0.475649,-2.7481955 0.06166,-0.061658 0.255439,0.00881 0.317098,-0.05285 0.149431,-0.1494303 0.473027,-0.2616258 0.634201,-0.4227994 0.11716,-0.117162 0.157805,-0.7391556 0.211399,-0.7927486 0.08319,-0.083189 0.04169,-0.241921 0.105699,-0.3699494 0.163494,-0.3269885 0.20557,-1.2742281 -0.05285,-1.5326472 -0.02757,-0.027569 0.01842,-0.1837754 0,-0.2113997 -0.139782,-0.2096744 -0.328806,-0.3288076 -0.475649,-0.4756492 -0.01844,-0.018447 0.02193,-0.1475809 0,-0.1585497 -0.226171,-0.1130861 -0.201092,-0.1057 -0.475647,-0.1057 z" />
  <path
     inkscape:original-d="m 30.600099,2.7222354 c -0.0044,-1.1261131 -0.971254,-1.5326473 -2.166848,-1.5326473 -0.06722,0 -0.380013,-0.042785 -0.422799,0 -0.07047,0.070467 -0.193783,0.088083 -0.26425,0.1585497 -0.129127,0.129128 0.135234,0.4989666 0.26425,0.3699494 0.221216,-0.2212146 -0.264371,-0.4229202 -0.3171,-0.4756492 -0.03523,-0.035233 -0.01762,-0.1233164 -0.05285,-0.1585497 -0.03737,-0.037371 -0.311248,0 -0.369951,0 -0.895819,0 -1.696239,0.2164418 -2.166846,0.6870488 -0.0965,0.096499 -0.799658,0 -0.951298,0 -0.235458,0 -0.85966,-0.4897099 -1.056998,-0.6870488 -0.05285,-0.05285 -0.2114,0 -0.26425,-0.05285 -0.256966,-0.25696621 -0.95639,-0.31200748 -1.215548,-0.0528499 -0.02642,0.026425 -0.132125,-0.026425 -0.15855,0 -0.04792,0.0479211 -0.118228,0.3497885 -0.158549,0.3699493 -0.136255,0.068128 -0.409878,0.1456285 -0.528499,0.2642496 -0.03192,0.031916 -0.266981,0 -0.3171,0 -0.126352,0 -0.712341,0.080407 -0.792749,0 C 19.382668,1.3348885 18.926834,1.192871 18.497468,0.97818846 18.004245,0.73157672 16.916612,1.3963469 16.753421,1.5595375 c -0.08643,0.086436 -0.319069,0.054819 -0.422799,0.1585497 -0.0095,0.00949 -0.630383,-0.1566419 -0.739899,-0.2113996 C 15.355723,1.3891874 14.846691,1.3440042 14.639425,1.1367382 14.619571,1.1168836 12.509154,0.95990104 12.366879,1.0310384 12.132992,1.1479817 12.19414,1.309477 12.04978,1.4538376 11.80751,1.6961067 11.729915,2.349521 11.99693,2.6165357 c 0.02491,0.024914 0.08079,-0.024914 0.105699,0 0.05285,0.05285 0,0.2113997 0.05285,0.2642494 0.220667,0.220667 0.497434,0.5284992 0.845599,0.5284992 0.603793,0 -0.17566,-0.722788 -0.475649,-0.4227992 -0.02491,0.024913 0.02491,0.080786 0,0.1056997 -0.08808,0.088083 -0.281866,0.070466 -0.36995,0.1585497 -0.291873,0.2918738 -0.615279,0.7209793 -0.898448,1.0041484 -0.04063,0.040628 -0.774058,0.334179 -0.845599,0.3699494 -0.06747,0.033735 -0.8254404,-0.4026414 -0.8455983,-0.4227994 -0.026424,-0.026424 0.026424,-0.1321248 0,-0.1585498 C 9.2093439,3.6869933 9.1226908,3.177541 8.7730851,2.8279354 8.6661922,2.7210424 7.2371981,2.6197751 7.081888,2.7750854 6.9829129,2.8740605 6.7913106,2.9599627 6.7119385,3.0393348 c -0.00528,0.00529 0.024665,0.1832131 -0.05285,0.1057 C 6.548717,3.0346631 6.4387874,2.8718837 6.3419891,2.7750854 6.2382589,2.6713549 6.0056256,2.7029713 5.9191899,2.6165357 5.653186,2.3505317 4.6720345,1.9610943 4.2808427,2.3522861 4.2191845,2.4139443 4.0254015,2.3434778 3.9637433,2.405136 3.8096087,2.5592706 3.4065281,2.6981017 3.3823941,2.7222354 c -0.079275,0.079275 -0.1849744,0.132125 -0.2642494,0.2113997 -0.044042,0.044042 -0.00881,0.167358 -0.05285,0.2113997 -0.024913,0.024913 -0.080786,-0.024913 -0.1056997,0 -0.2221731,0.222173 1.1850926,1.3517029 0.8984485,1.6383472 -0.00328,0.1488115 -0.1191577,0.013457 -0.1585499,0.05285 -0.024432,0.024432 0.015954,0.1266402 0,0.1585497 C 3.6336224,5.1265244 3.0449038,5.7184508 2.906745,5.7875303 2.7547252,5.8635404 2.2307787,5.723598 2.4310959,5.5232806 2.7693746,5.1850021 4.3050193,6.5032524 3.4880941,7.3201775 3.3598172,7.4484544 3.1230786,7.5217096 3.012445,7.742977 2.6756486,8.4165697 3.3245821,9.1121125 3.5937938,9.3813242 c 0.091194,0.091194 0.2942813,0.082882 0.3699495,0.1585497 0.1527215,0.1527215 0.2887901,0.3029447 0.5284991,0.4227992 0.2994523,0.1497259 0.3642022,0.5756019 0.5284989,0.7398989 0.020593,0.02059 0,0.179148 0,0.2114 0,0.906885 -1.4420107,1.396821 -1.1626978,1.955446 0.082953,0.165905 0.1646992,0.217549 0.2642495,0.3171 0.022148,0.02215 0.033752,0.226053 0.05285,0.264249 0.055522,0.111045 0.1046729,-0.001 0.1585497,0.05285 0.026424,0.02642 -0.026424,0.132125 0,0.15855 0.051144,0.05114 0.5257957,0.159901 0.6341989,0.1057 0.064455,-0.03223 0.2260238,-0.196776 0.2642494,-0.15855 0.1568093,0.156809 1.0241739,0.646997 0.8455986,1.004148 -0.097291,0.194582 -0.3115201,0.20582 -0.4227991,0.3171 -0.1876251,0.187624 -0.374196,0.530622 -0.5813492,0.634199 -0.2395246,0.119762 -0.5751825,0.258083 -0.7398986,0.422799 -0.071439,0.07144 -0.5895015,0.166702 -0.7398989,0.317099 -0.044041,0.04404 0.044042,0.220208 0,0.26425 -0.4447759,0.444776 0.3494985,2.028747 0.1585498,2.219696 -0.3350266,0.335027 -1.3403148,1.67213 -0.6870489,2.325396 0.018463,0.01846 0,1.52585 0,1.691197 0,0.175145 0.3435832,1.400464 0.2113997,1.532648 -0.4857237,0.485723 -0.9512984,0.714343 -0.9512984,1.585497 0,0.08947 -0.039149,0.291651 0,0.369949 0.1041222,0.208244 0.2300476,0.494298 0.3699495,0.634199 0.09111,0.09111 0.42442,0.0016 0.5284989,0.105701 0.111715,0.111715 0.5281139,-2.64e-4 0.6341991,0.105699 0.3850225,0.385021 1.7673946,-0.446146 1.9025967,-0.581348 0.080922,-0.08092 0.7115805,-0.144392 0.8455986,-0.211401 0.3666681,-0.183334 0.9801112,-0.153774 1.162698,0.211401 0.026326,0.05265 0.6022351,0.877562 0.4756492,1.004147 -0.026424,0.02643 -0.1321247,-0.02643 -0.1585497,0 -0.017616,0.01762 -0.035233,0.140933 -0.05285,0.158551 -0.1339874,0.133985 -0.4252114,0.319511 -0.5813489,0.475647 -0.035233,0.03523 -0.1761665,-0.03523 -0.2113997,0 -0.1962825,0.196284 -0.481769,0.240885 -0.7398989,0.369951 -0.2006891,0.100343 -0.7987734,-0.152524 -0.9512983,0 -0.1922553,0.192254 -0.6172513,0.247301 -0.7927486,0.422799 -0.035233,0.03523 -0.1761665,-0.03524 -0.2113997,0 -0.1716781,0.171677 -0.3061248,0.253275 -0.4756492,0.422799 -0.2823308,0.282331 -0.1351394,1.767456 0.05285,1.955448 0.2352265,0.235225 0.616303,0.739897 0.3170994,0.739897 -0.083784,0 -1.1055432,0.427103 -1.215548,0.3171 -0.029077,-0.02908 -0.1747438,-0.776555 -0.1056997,-0.845598 0.086072,-0.08607 0.4037187,0.05285 0.4756491,0.05285 0.206383,0 0.3189812,0.107583 0.4227995,0.2114 0.035233,0.03523 0.1761662,-0.03523 0.2113994,0 0.096891,0.09689 0.273058,0.114509 0.3699495,0.211399 0.05285,0.05285 0.05285,0.158552 0.1056997,0.211402 0.026424,0.02643 0.132125,-0.02643 0.1585497,0 0.1272958,0.127294 0.3844983,0.297948 0.6341991,0.422799 0.1550263,0.07751 0.4263224,-0.07752 0.5813489,0 0.7068318,0.353415 2.0262743,-0.123677 2.3782461,-0.475649 0.1659676,-0.165968 1.0573574,0.05285 1.2155478,0.05285 0.1643806,0 1.9338605,1.078582 2.0611465,0.951296 0.04218,-0.04218 -0.02772,-0.208801 0,-0.264247 0.369545,-0.739092 0.197735,-1.162698 1.268398,-1.162698 0.09261,0 0.522413,-0.05894 0.581349,0 0.18342,0.18342 1.336803,0.882893 1.585497,0.634198 0.115108,-0.115109 0.284683,-0.115916 0.475649,-0.211399 0.298286,-0.149143 0.47281,-0.314259 0.634199,-0.47565 0.03523,-0.03523 -0.03523,-0.176167 0,-0.211399 0.448479,-0.448479 -0.317099,-0.59536 -0.317099,-0.105701 0,0.08947 -0.03915,0.291653 0,0.369951 0.13183,0.26366 1.429378,0.712258 1.902596,0.475649 0.04741,-0.02371 0.374562,-0.268861 0.4228,-0.3171 0.266215,-0.266216 0.68322,-0.418971 0.951298,-0.687049 0.01673,-0.01672 1.382809,0 1.532648,0 0.05012,0 0.285184,-0.03192 0.317099,0 0.149741,0.149741 -0.149741,0.748707 0,0.898448 0.100604,0.100605 0.303749,0.356598 0.422799,0.47565 0.04762,0.04762 0.348364,0.136964 0.4228,0.211399 0.01754,0.01754 0.405256,0.01754 0.422799,0 0.290141,-0.290142 1.908645,-0.217448 2.061146,-0.369948 0.08513,-0.08513 0.198673,-0.349888 0.47565,-0.2114 0.303863,0.151932 0.652864,0.220732 0.951298,0.369949 0.117171,0.05858 2.269822,0.107061 2.378246,0.05285 0.09144,-0.04572 0.695132,-0.430884 0.739899,-0.475649 0.0132,-0.0132 0.407853,-0.09076 0.528498,-0.2114 0.107206,-0.107206 -0.339818,-0.55863 -0.528498,-0.369951 -0.203507,0.203507 0.104921,0.634201 0.26425,0.634201 0.24342,0 0.791155,0.106495 1.004147,0 0.247184,-0.123592 0.406667,-0.311724 0.739899,-0.422801 0.136697,-0.04556 0.590013,0.09704 0.687049,0 0.07795,-0.07795 0.19947,-0.146619 0.26425,-0.2114 0.07364,-0.07364 0.425315,-1.104818 0.317098,-1.321247 -0.103603,-0.207208 -0.437851,-0.815493 -0.317098,-1.056997 0.219723,-0.439449 1.023541,-0.620136 1.215546,-1.00415 0.139116,-0.278225 0.29169,-1.084437 0.422802,-1.215546 0.108275,-0.108278 -0.112289,-0.488828 -0.158552,-0.58135 -0.04456,-0.08912 0.06775,-0.355054 0,-0.422799 -0.110728,-0.110729 -0.736092,-0.585155 -0.475649,-0.845599 0.02492,-0.02491 0.08079,0.02491 0.105701,0 0.132681,-0.132682 0.287909,-0.446459 0.475649,-0.634199 0.02421,-0.02421 0.190535,-0.01112 0.2114,-0.05285 0.165947,-0.331895 0.418666,-0.638332 0.05285,-1.004148 -0.02551,-0.02549 0.03003,-0.196384 0,-0.2114 -0.187841,-0.09392 -0.104743,-0.104741 -0.211399,-0.211399 -0.25227,-0.252268 -0.866429,0.560521 -0.634201,0.792749 0.197945,0.197945 0.319146,0.370972 0.634201,0.528499 0.06329,0.03164 0.264247,-0.159778 0.264247,-0.15855 0,0.003 -0.195268,0.195269 -0.211399,0.211399 -0.05407,0.05407 -0.04162,0.253023 -0.105699,0.3171 -0.108066,0.108065 -0.130082,0.394331 -0.211399,0.475649 -0.226727,0.226727 -0.514088,0.309894 -0.845601,0.475649 -0.07155,0.03577 -0.570431,0.116616 -0.634198,0.05285 -0.308448,-0.308448 -0.548767,-0.918718 -0.845598,-1.215548 -0.07964,-0.07964 -0.263681,-0.15798 -0.369948,-0.264249 -0.02492,-0.02491 0.02492,-0.08079 0,-0.1057 -0.02551,-0.02549 -0.196384,0.03003 -0.2114,0 -0.173418,-0.346834 -1.364398,0.2211 -1.162698,0.422799 0.123315,0.123317 0.352333,0.140933 0.47565,0.26425 0.110863,0.110864 0.555178,-0.423312 0.581347,-0.475649 0.04197,-0.08395 0.338911,-0.39176 0.422799,-0.47565 0.120907,-0.120906 0.79275,-2.057449 0.79275,-2.219696 0,-0.222888 0.06843,-0.587465 0,-0.792748 -0.09014,-0.27043 -0.861819,-1.727827 -0.58135,-2.008297 0.362879,-0.362879 0.948367,-0.419867 1.268399,-0.739899 0.11643,-0.116431 0.695958,-0.11461 0.845598,-0.264249 0.10746,-0.107462 0.103939,-0.421038 0.211399,-0.5285 0.09798,-0.09798 0.07715,-0.207155 0.158549,-0.369949 0.45756,-0.915117 0.0669,-1.888548 -0.422799,-2.378246 -0.21791,-0.217911 -0.520255,0.113942 -0.317097,0.3171 0.03371,0.03371 0.888531,0.01983 0.898448,0 0.07561,-0.151235 0.09069,-0.196396 0.211399,-0.3171 0.04687,-0.04687 0.02101,-0.147699 0.05285,-0.2114 0.346686,-0.693372 0.675955,-1.660535 0.26425,-2.483945 -0.02772,-0.05545 0.04218,-0.222067 0,-0.26425 -0.147558,-0.14756 -0.184375,-0.501476 -0.369948,-0.687049 -0.171527,-0.171526 -1.409393,-0.431576 -1.744046,-0.264249 -0.30698,0.153489 -0.51843,0.359879 -0.79275,0.634199 -0.14695,0.14695 -0.189675,0.453923 -0.369949,0.634199 -0.03465,0.03465 -0.02638,0.184921 -0.05285,0.211399 -0.174943,0.174942 -0.621184,-0.152041 -0.7399,-0.211399 -0.163837,-0.08192 -0.478504,-0.108555 -0.581347,-0.2114 -0.144563,-0.144562 -0.647595,-1.664406 -0.422799,-2.1139964 0.273685,-0.5473713 1.050568,-1.1691258 1.638345,-0.5813489 0.295463,0.295461 -0.742172,0.5790746 -0.792747,0.5284992 -0.633254,-0.6332525 0.0965,-2.3690431 0.475649,-2.7481955 0.06166,-0.061658 0.255439,0.00881 0.317098,-0.05285 0.149431,-0.1494303 0.473027,-0.2616258 0.634201,-0.4227994 0.11716,-0.117162 0.157805,-0.7391556 0.211399,-0.7927486 0.08319,-0.083189 0.04169,-0.241921 0.105699,-0.3699494 0.163494,-0.3269885 0.20557,-1.2742281 -0.05285,-1.5326472 -0.02757,-0.027569 0.01842,-0.1837754 0,-0.2113997 -0.139782,-0.2096744 -0.328806,-0.3288076 -0.475649,-0.4756492 -0.01844,-0.018447 0.02193,-0.1475809 0,-0.1585497 -0.226171,-0.1130861 -0.201092,-0.1057 -0.475647,-0.1057 z"
     inkscape:connector-curvature="0"
     id="path2363"
     d="M 30.600099,2.7222354 C 30.156582,1.9217135 29.335787,1.3411512 28.433251,1.1895881 c -0.140095,-0.023526 -0.285644,-0.036997 -0.422799,0 -0.100519,0.027115 -0.194025,0.081689 -0.26425,0.1585497 -0.04683,0.051258 -0.08353,0.1130774 -0.09825,0.1809292 -0.01472,0.067852 -0.0061,0.1419238 0.03063,0.2008374 0.01837,0.029457 0.04352,0.054798 0.07337,0.07252 0.02985,0.017722 0.06441,0.027699 0.09912,0.0276 0.03472,-9.93e-5 0.06948,-0.010407 0.09808,-0.030085 0.0286,-0.019678 0.0508,-0.048761 0.0613,-0.081852 0.01513,-0.047702 0.0053,-0.1008193 -0.01789,-0.1451479 -0.02323,-0.044329 -0.05885,-0.080938 -0.09671,-0.113656 -0.03787,-0.032718 -0.07849,-0.06224 -0.115066,-0.096395 -0.03658,-0.034155 -0.06948,-0.073735 -0.08743,-0.1204504 -0.01004,-0.026129 -0.01516,-0.05383 -0.02184,-0.081013 -0.0067,-0.027183 -0.01518,-0.054454 -0.03101,-0.077537 -0.01912,-0.027869 -0.04826,-0.048145 -0.08018,-0.059226 -0.03193,-0.011081 -0.06652,-0.013307 -0.100089,-0.00942 -0.06714,0.00777 -0.128962,0.03895 -0.189678,0.068649 -0.68259,0.3338877 -1.421435,0.5394929 -2.166846,0.6870488 -0.157656,0.031208 -0.316449,0.059975 -0.477032,0.066492 -0.160583,0.00652 -0.323867,-0.00984 -0.474266,-0.066492 -0.19774,-0.074484 -0.362959,-0.2138728 -0.525333,-0.3490908 -0.162373,-0.135218 -0.331063,-0.2715657 -0.531665,-0.337958 -0.08544,-0.028278 -0.17478,-0.043123 -0.26425,-0.05285 -0.403603,-0.0438768 -0.815186,0.014464 -1.215548,-0.0528499 -0.02641,-0.00444 -0.05282,-0.009433 -0.07956,-0.0108116 -0.02675,-0.001379 -0.05408,9.8376e-4 -0.07899,0.0108116 -0.03255,0.0128421 -0.05935,0.0379548 -0.07827,0.0673908 -0.01892,0.029436 -0.03045,0.063082 -0.03826,0.097195 -0.01561,0.068226 -0.01713,0.139952 -0.04202,0.2053633 -0.01862,0.048919 -0.04993,0.092599 -0.08843,0.1280621 -0.0385,0.035463 -0.08406,0.062856 -0.132408,0.082902 -0.0967,0.040091 -0.203003,0.050731 -0.307657,0.053286 -0.105675,0.00258 -0.211426,-0.00262 -0.3171,0 -0.265212,0.00659 -0.534803,0.062004 -0.792749,0 C 19.444263,1.5604898 19.256526,1.4307037 19.075838,1.3016347 18.895151,1.1725656 18.71098,1.0391758 18.497468,0.97818846 18.345644,0.93482144 18.184193,0.93021941 18.028006,0.95339077 17.871818,0.97656213 17.720556,1.0269606 17.576436,1.0914649 17.288197,1.2204735 17.02871,1.4048071 16.753421,1.5595375 16.621256,1.6338232 16.481433,1.7025265 16.330622,1.7180872 16.201381,1.7314223 16.07076,1.7047284 15.948101,1.66188 15.825443,1.6190317 15.709095,1.5602519 15.590723,1.5066876 15.28069,1.3663954 14.955995,1.2615811 14.639425,1.1367382 14.26416,0.98874838 13.895094,0.81102964 13.496993,0.7459138 c -0.199051,-0.0325579 -0.40446,-0.0359979 -0.601395,0.007568 -0.196934,0.043566 -0.385277,0.13576229 -0.528719,0.27755642 -0.125475,0.1240334 -0.212611,0.2806356 -0.317099,0.4227992 -0.07353,0.1000408 -0.155977,0.1933056 -0.228798,0.2938626 -0.07282,0.1005571 -0.136594,0.2100663 -0.16667,0.3305239 -0.03007,0.1204577 -0.02373,0.2534894 0.03714,0.3616966 0.03044,0.054104 0.07415,0.1010716 0.127422,0.1329425 0.05327,0.031871 0.116144,0.04825 0.178053,0.043673 0.01772,-0.00131 0.0353,-0.00429 0.05303,-0.00545 0.01774,-0.00116 0.0359,-4.344e-4 0.05267,0.00545 0.02327,0.00817 0.04246,0.026047 0.05472,0.047443 0.01226,0.021396 0.01795,0.046117 0.01914,0.070749 0.0024,0.049262 -0.0125,0.097478 -0.02101,0.146058 -0.01858,0.1061221 -0.0062,0.2176232 0.03617,0.3166787 0.04237,0.099055 0.114695,0.1852248 0.205461,0.2432656 0.09077,0.058041 0.199656,0.087567 0.307264,0.082306 0.107609,-0.00526 0.213386,-0.045445 0.296702,-0.1137511 0.09131,-0.074862 0.155081,-0.1847357 0.166825,-0.3022271 0.0059,-0.058746 -0.0011,-0.1188558 -0.02124,-0.1743484 -0.02015,-0.055492 -0.05355,-0.1062555 -0.09726,-0.1459472 -0.0437,-0.039692 -0.0977,-0.068153 -0.155379,-0.080749 -0.05768,-0.012596 -0.118912,-0.00917 -0.174483,0.010763 -0.05557,0.019937 -0.105233,0.056448 -0.140001,0.1041629 -0.03477,0.047715 -0.05435,0.1065084 -0.05411,0.1655463 1.45e-4,0.035332 0.0071,0.071098 0,0.1056997 -0.0073,0.035356 -0.02926,0.066711 -0.05748,0.089235 -0.02821,0.022525 -0.06237,0.036722 -0.09743,0.045326 -0.07012,0.017207 -0.14371,0.012836 -0.215047,0.023989 -0.114365,0.01788 -0.220034,0.075697 -0.307141,0.151929 -0.08711,0.076232 -0.15686,0.1703863 -0.217852,0.268768 -0.121983,0.1967633 -0.213652,0.4159434 -0.373455,0.5834514 -0.108327,0.1135502 -0.244395,0.1986535 -0.389763,0.2577847 -0.145368,0.059131 -0.300083,0.092949 -0.455836,0.1121647 -0.174503,0.021528 -0.356763,0.024077 -0.5203642,-0.04034 C 9.8092673,4.5522831 9.7333929,4.5032594 9.6748948,4.437634 9.6163967,4.3720086 9.575884,4.2893697 9.5658337,4.2020329 c -0.00605,-0.052556 -0.00119,-0.1056607 0,-0.1585498 C 9.5715971,3.7882911 9.4898726,3.5337684 9.3468938,3.3223133 9.203915,3.1108582 9.0014002,2.9420773 8.7730851,2.8279354 8.5143868,2.6986041 8.2237893,2.6385565 7.9345762,2.6358816 7.645363,2.6332067 7.3572906,2.6867406 7.081888,2.7750854 7.0073251,2.799004 6.9328905,2.8257992 6.8665892,2.867463 6.800288,2.9091268 6.7420349,2.9670442 6.7119385,3.0393348 c -0.00764,0.018346 -0.013404,0.037427 -0.02107,0.055761 -0.00767,0.018334 -0.017447,0.036174 -0.031779,0.049939 -0.017488,0.016796 -0.04118,0.026621 -0.065345,0.028625 -0.024165,0.002 -0.048701,-0.00359 -0.070347,-0.014515 C 6.4801063,3.1372882 6.4497244,3.095484 6.4308749,3.0508014 6.4120254,3.0061187 6.4032489,2.957979 6.3924818,2.9106935 6.3817147,2.8634081 6.3684563,2.815722 6.3419891,2.7750854 6.2993545,2.7096262 6.2263055,2.6691371 6.1510288,2.6482558 6.0757521,2.6273745 5.9969777,2.6237247 5.9191899,2.6165357 5.3670064,2.5655042 4.8349857,2.3313959 4.2808427,2.3522861 4.1733738,2.3563375 4.065471,2.3702441 3.9637433,2.405136 3.7545557,2.4768859 3.5843532,2.6321242 3.3823941,2.7222354 3.3286523,2.7462142 3.2724554,2.765688 3.222907,2.797439 c -0.024774,0.015876 -0.04778,0.034835 -0.066331,0.057674 -0.018551,0.022839 -0.032557,0.04969 -0.038431,0.078522 -0.0076,0.037301 -0.00144,0.075932 -0.00359,0.1139392 -0.00107,0.019004 -0.0043,0.038111 -0.012082,0.055482 -0.00778,0.01737 -0.020418,0.032966 -0.037183,0.041979 -0.015881,0.00854 -0.03453,0.010749 -0.052522,0.00956 -0.017992,-0.00118 -0.035594,-0.00557 -0.053178,-0.00956 C 2.7267838,3.0921933 2.4788216,3.1080246 2.2546207,3.1900441 2.0304198,3.2720637 1.8307783,3.4199796 1.6870255,3.6105797 1.5432727,3.8011797 1.4559203,4.0337855 1.4386765,4.2718945 1.4214327,4.5100036 1.4743589,4.7527683 1.5891493,4.962092 1.7039397,5.1714157 1.8801858,5.3465533 2.0902296,5.4600207 2.3002734,5.5734882 2.5433672,5.6248815 2.7813627,5.6061358 3.0193582,5.58739 3.2514082,5.4985718 3.4410975,5.3536193 3.6307868,5.2086668 3.7774401,5.0080959 3.8580435,4.783382 c -0.027511,-0.014614 -0.061052,-0.017413 -0.090604,-0.00756 -0.029553,0.00985 -0.054706,0.032215 -0.067946,0.060412 -0.01143,0.024342 -0.014014,0.052031 -0.012283,0.078867 0.00173,0.026836 0.00757,0.053208 0.012283,0.079683 0.020221,0.1136057 0.019636,0.2314043 -0.00689,0.3437052 C 3.6660775,5.4507878 3.6131987,5.5574156 3.5358945,5.6430847 3.4585903,5.7287538 3.3565675,5.7928436 3.2444961,5.8203233 3.1324248,5.847803 3.010657,5.8377043 2.906745,5.7875303 2.8238979,5.7475275 2.7549512,5.6843883 2.6811054,5.6295188 2.6441825,5.602084 2.6056377,5.5764807 2.5639147,5.5571117 c -0.041723,-0.019369 -0.086841,-0.03241 -0.1328188,-0.033831 -0.056925,-0.00176 -0.114016,0.014651 -0.1623267,0.044812 -0.048311,0.030161 -0.087832,0.073793 -0.1147484,0.1239844 -0.053832,0.100382 -0.05539,0.2241428 -0.017079,0.331412 0.038312,0.1072692 0.1136454,0.1987331 0.2031629,0.269168 0.089517,0.070435 0.1929985,0.12113 0.2987903,0.1633503 0.2115835,0.084441 0.4396644,0.1391739 0.6239627,0.2730841 0.092149,0.066955 0.1718136,0.1541446 0.2168906,0.2587511 0.045077,0.1046064 0.053003,0.2275486 0.00835,0.332335 -0.042118,0.098828 -0.125876,0.173717 -0.2136625,0.2356394 C 3.1866451,7.6177393 3.091816,7.6705815 3.012445,7.742977 2.8851553,7.8590799 2.8041063,8.0223095 2.7786699,8.1927076 2.7532336,8.3631058 2.7819463,8.5398 2.8508307,8.697716 c 0.1377688,0.3158322 0.4271365,0.5458267 0.7429631,0.6836082 0.1230285,0.053672 0.251486,0.095438 0.3699495,0.1585497 0.1997298,0.1064067 0.3627304,0.2687371 0.5284991,0.4227992 0.1132159,0.1052209 0.229597,0.2081259 0.3270935,0.3280579 0.097496,0.119932 0.1762406,0.259342 0.2014054,0.411841 0.011525,0.06984 0.011611,0.141575 0,0.2114 -0.034265,0.206064 -0.1676555,0.38354 -0.3237357,0.522376 -0.1560802,0.138836 -0.3367512,0.246778 -0.5031126,0.373113 -0.1663613,0.126334 -0.3227469,0.277229 -0.4035718,0.469853 -0.040412,0.09631 -0.060706,0.201951 -0.051288,0.305972 0.00942,0.104022 0.049494,0.206179 0.1190104,0.284132 0.046754,0.05243 0.1052716,0.09282 0.1567181,0.140649 0.025723,0.02392 0.049811,0.04987 0.06903,0.07926 0.019219,0.0294 0.033492,0.06242 0.038502,0.09719 0.00672,0.04666 -0.00335,0.09401 -0.00289,0.141144 2.261e-4,0.02357 0.00317,0.04739 0.01188,0.06929 0.00871,0.0219 0.023563,0.04184 0.043864,0.05382 0.024459,0.01442 0.054022,0.01614 0.082166,0.01991 0.014072,0.0019 0.028161,0.0044 0.041446,0.0094 0.013285,0.005 0.025814,0.01266 0.034938,0.02354 0.0088,0.0105 0.014119,0.02364 0.016476,0.03713 0.00236,0.01349 0.00187,0.02736 -2.94e-5,0.04093 -0.00379,0.02713 -0.013109,0.05329 -0.016447,0.08049 -0.00414,0.0337 0.00117,0.06837 0.014212,0.09972 0.013039,0.03135 0.033697,0.05936 0.059079,0.08192 0.050763,0.0451 0.1193476,0.06736 0.1872311,0.069 0.067884,0.0016 0.13517,-0.01617 0.1973503,-0.04345 0.06218,-0.02729 0.1197859,-0.06388 0.1763274,-0.101483 0.085651,-0.05696 0.1701715,-0.116958 0.2642494,-0.15855 0.1383902,-0.06118 0.2956374,-0.07997 0.4440047,-0.05026 0.1483673,0.0297 0.2869959,0.108206 0.3866447,0.222071 0.099649,0.113866 0.1592596,0.262687 0.1629227,0.413954 0.00366,0.151268 -0.04924,0.303726 -0.1479735,0.418386 -0.1153044,0.133904 -0.282345,0.209872 -0.4227991,0.3171 -0.2283942,0.174365 -0.3817932,0.427451 -0.5813492,0.634199 -0.2005174,0.207744 -0.4558321,0.371118 -0.7398986,0.422799 -0.1399674,0.02546 -0.2846061,0.02374 -0.4222161,0.05984 -0.068805,0.01805 -0.1357983,0.04583 -0.1927122,0.0885 -0.056914,0.04267 -0.1033837,0.100986 -0.1249706,0.168764 -0.026988,0.08474 -0.013833,0.176401 0,0.26425 0.1158513,0.735721 0.2620958,1.482143 0.1585498,2.219696 -0.1125318,0.801559 -0.5126176,1.534995 -0.6870489,2.325396 -0.1225148,0.555151 -0.1308732,1.137956 0,1.691197 0.060179,0.254393 0.1491544,0.501431 0.205477,0.756705 0.056323,0.255275 0.07894,0.524933 0.00592,0.775943 -0.086976,0.298995 -0.2993451,0.542255 -0.499234,0.781016 -0.1998889,0.238762 -0.3996253,0.49754 -0.4520644,0.804481 -0.02085,0.122043 -0.017254,0.247346 0,0.369949 0.017711,0.125852 0.050209,0.250852 0.1098691,0.363071 0.05966,0.112219 0.1479021,0.211392 0.2600804,0.271128 0.079825,0.04251 0.1692251,0.06405 0.2587347,0.07698 0.08951,0.01292 0.1800096,0.01763 0.2697642,0.02872 0.2127976,0.02631 0.4204788,0.08842 0.6341991,0.105699 0.3342201,0.02702 0.6685584,-0.05699 0.981554,-0.177265 0.3129957,-0.120279 0.6107964,-0.276881 0.9210427,-0.404083 0.2702226,-0.110792 0.5537729,-0.19987 0.8455986,-0.211401 0.3952574,-0.01562 0.7801279,0.11084 1.162698,0.211401 0.1378216,0.03623 0.2772591,0.0695 0.4078852,0.12646 0.1306262,0.05696 0.2536309,0.139881 0.334572,0.257166 0.040471,0.05864 0.069814,0.125365 0.082272,0.195519 0.012458,0.07015 0.00771,0.143734 -0.016922,0.210594 -0.024627,0.06686 -0.06949,0.126647 -0.1287415,0.166221 -0.059251,0.03957 -0.1328679,0.05817 -0.2034172,0.04819 -0.026874,-0.0038 -0.05311,-0.01158 -0.080094,-0.0145 -0.013492,-0.0015 -0.027185,-0.0017 -0.040591,4.14e-4 -0.013406,0.0021 -0.026545,0.0066 -0.037865,0.01409 -0.01207,0.008 -0.021821,0.0192 -0.029037,0.03174 -0.00722,0.01254 -0.011968,0.02639 -0.015096,0.04052 -0.00626,0.02825 -0.00611,0.05747 -0.00872,0.08629 -0.01237,0.136578 -0.089194,0.263769 -0.197741,0.347579 -0.1085473,0.08381 -0.2464918,0.125646 -0.3836079,0.128068 -0.070505,0.0012 -0.1412769,-0.0074 -0.2113997,0 -0.1382933,0.01467 -0.2619171,0.09025 -0.3767212,0.168742 -0.114804,0.07849 -0.2293564,0.163367 -0.3631777,0.201209 -0.1538024,0.04349 -0.3175547,0.0206 -0.4757887,-0.002 -0.1582341,-0.02256 -0.3224462,-0.04407 -0.4755096,0.002 -0.1450683,0.04362 -0.2651792,0.143397 -0.3863534,0.234306 -0.060587,0.04545 -0.122714,0.08939 -0.1901606,0.12386 -0.067447,0.03447 -0.1406768,0.05935 -0.2162346,0.06463 -0.07035,0.0049 -0.1412423,-0.0072 -0.2113997,0 -0.1102922,0.01125 -0.2119183,0.07012 -0.2904614,0.148365 -0.078543,0.07824 -0.1360768,0.175041 -0.1851878,0.274434 -0.150541,0.304672 -0.2289492,0.645361 -0.2215097,0.985114 0.00744,0.339753 0.101231,0.677906 0.2743597,0.970334 0.069606,0.117569 0.151671,0.227695 0.2159246,0.348273 0.064254,0.120578 0.1107633,0.255332 0.1011748,0.391624 -0.00901,0.128115 -0.068656,0.250849 -0.1591072,0.342026 -0.090451,0.09118 -0.210403,0.151179 -0.3364641,0.175739 -0.1260612,0.02456 -0.2578515,0.01445 -0.3809063,-0.02232 -0.1230549,-0.03677 -0.2375308,-0.0997 -0.3390704,-0.178345 -0.1337783,-0.103609 -0.2495092,-0.242113 -0.2844159,-0.407682 -0.017453,-0.08278 -0.013637,-0.170766 0.016516,-0.249814 0.030154,-0.07905 0.087446,-0.148482 0.1621997,-0.188102 0.073617,-0.03902 0.1608373,-0.04788 0.2431552,-0.03501 0.082318,0.01286 0.1602525,0.04635 0.2324939,0.08786 0.068882,0.03958 0.1332685,0.08655 0.20172,0.12687 0.068452,0.04032 0.1422951,0.07432 0.2210795,0.08453 0.069956,0.0091 0.1408644,-9.43e-4 0.2113994,0 0.075442,0.001 0.1517221,0.01503 0.2187313,0.04971 0.067009,0.03467 0.1241882,0.09125 0.1512182,0.161691 0.014575,0.03798 0.020188,0.07883 0.033212,0.11737 0.00651,0.01927 0.014942,0.03805 0.026799,0.05457 0.011857,0.01653 0.027293,0.03078 0.045688,0.03946 0.024242,0.01144 0.052104,0.01264 0.078799,0.0102 0.026695,-0.0024 0.053012,-0.0083 0.079751,-0.0102 0.065091,-0.0046 0.1303472,0.01451 0.1875468,0.04592 0.0572,0.03141 0.1070555,0.07465 0.1533754,0.120616 0.09264,0.09193 0.1762366,0.198512 0.2932769,0.256262 0.088714,0.04377 0.1904207,0.05568 0.2891841,0.05 0.098763,-0.0057 0.1956951,-0.0281 0.2921648,-0.05 0.788431,-0.179056 1.5831128,-0.329199 2.3782461,-0.475649 0.2035417,-0.03749 0.4083105,-0.07486 0.6152616,-0.07728 0.2069511,-0.0024 0.4181559,0.03183 0.6002862,0.13013 0.206697,0.111561 0.3626085,0.297336 0.4991645,0.488443 0.136556,0.191107 0.26043,0.393577 0.426541,0.55964 0.08305,0.08303 0.176596,0.156506 0.281303,0.209692 0.104707,0.05319 0.220977,0.08565 0.338418,0.08561 0.117441,-5e-5 0.235928,-0.03368 0.331101,-0.102489 0.09517,-0.06881 0.165429,-0.173732 0.184619,-0.289595 0.01442,-0.08706 5.03e-4,-0.176005 0,-0.264247 -8.9e-4,-0.156219 0.04106,-0.311623 0.11426,-0.449633 0.0732,-0.13801 0.177109,-0.258819 0.298219,-0.357498 0.242221,-0.197358 0.547806,-0.30373 0.855919,-0.355567 0.192381,-0.03237 0.39144,-0.04464 0.581349,0 0.282987,0.06652 0.520224,0.251664 0.766286,0.406453 0.123031,0.07739 0.251262,0.148539 0.389419,0.193697 0.138157,0.04516 0.287446,0.06345 0.429792,0.03405 0.170498,-0.03521 0.319178,-0.135071 0.475649,-0.211399 0.122496,-0.05976 0.25192,-0.105927 0.368689,-0.176218 0.05839,-0.03515 0.113501,-0.07638 0.160001,-0.126197 0.0465,-0.04982 0.08426,-0.108485 0.105509,-0.173235 0.0224,-0.06827 0.02563,-0.144273 0,-0.211399 -0.02329,-0.061 -0.0715,-0.113343 -0.132791,-0.135861 -0.03064,-0.01126 -0.06412,-0.01502 -0.09638,-0.01002 -0.03226,0.005 -0.06322,0.01884 -0.08793,0.04018 -0.02531,0.02185 -0.04371,0.05119 -0.05437,0.08288 -0.01065,0.03169 -0.01373,0.06568 -0.01103,0.09901 0.0054,0.06666 0.03321,0.129439 0.0654,0.188056 0.175033,0.318723 0.494541,0.550862 0.848532,0.633997 0.35399,0.08314 0.737257,0.02013 1.054064,-0.158348 0.153808,-0.08665 0.291872,-0.198682 0.4228,-0.3171 0.146468,-0.132473 0.285184,-0.273753 0.438455,-0.398293 0.153271,-0.124539 0.323368,-0.233067 0.512843,-0.288756 0.246482,-0.07244 0.509778,-0.05158 0.765041,-0.02256 0.255262,0.02903 0.514317,0.06552 0.767607,0.02256 0.05312,-0.009 0.105794,-0.0215 0.159522,-0.02547 0.05373,-0.004 0.109531,0.0011 0.157577,0.02547 0.03599,0.01826 0.06635,0.04688 0.08856,0.08058 0.02222,0.0337 0.03645,0.07236 0.0436,0.11208 0.0143,0.07945 5.27e-4,0.161524 -0.02263,0.238855 -0.02316,0.07733 -0.05558,0.1516 -0.07987,0.228583 -0.02429,0.07698 -0.04044,0.158354 -0.02966,0.238354 0.01466,0.108735 0.07828,0.20596 0.157259,0.282124 0.07897,0.07617 0.173243,0.1342 0.26554,0.193526 0.1333,0.08568 0.268106,0.177047 0.4228,0.211399 0.1382,0.03069 0.281875,0.01347 0.422799,0 0.350009,-0.03345 0.702236,-0.04287 1.051187,-0.08597 0.348952,-0.0431 0.698153,-0.121492 1.009959,-0.283978 0.154652,-0.08059 0.303594,-0.182959 0.47565,-0.2114 0.171939,-0.02842 0.348551,0.02128 0.504789,0.09848 0.156238,0.0772 0.297387,0.181279 0.446509,0.271465 0.35793,0.216468 0.767244,0.353055 1.185179,0.370457 0.417935,0.0174 0.843724,-0.08754 1.193067,-0.317607 0.123015,-0.08102 0.235748,-0.176506 0.354397,-0.26379 0.118649,-0.08728 0.245118,-0.167267 0.385502,-0.211859 0.092,-0.02922 0.188286,-0.0427 0.281092,-0.06925 0.0928,-0.02655 0.185018,-0.06849 0.247406,-0.142148 0.05789,-0.06834 0.08529,-0.161568 0.07368,-0.250374 -0.01161,-0.08881 -0.06204,-0.171826 -0.135443,-0.223138 -0.07341,-0.05131 -0.16866,-0.07015 -0.25609,-0.05072 -0.08743,0.01943 -0.165718,0.0768 -0.210644,0.154282 -0.03194,0.05509 -0.04717,0.11929 -0.04635,0.182967 8.24e-4,0.06368 0.01741,0.126765 0.04534,0.183997 0.05586,0.114462 0.155157,0.203212 0.26526,0.267237 0.151356,0.08801 0.326692,0.133755 0.501776,0.133039 0.175085,-7.17e-4 0.349514,-0.04766 0.502371,-0.133039 0.125215,-0.06994 0.234814,-0.164215 0.351779,-0.24722 0.116964,-0.083 0.245973,-0.156485 0.38812,-0.175581 0.114431,-0.01537 0.230156,0.0054 0.34474,0.01956 0.114584,0.01419 0.234307,0.02126 0.342309,-0.01956 0.106731,-0.04034 0.191389,-0.123592 0.26425,-0.2114 0.150624,-0.181523 0.265854,-0.393889 0.324671,-0.622316 0.05882,-0.228426 0.06006,-0.472957 -0.0076,-0.698931 -0.05352,-0.178822 -0.148029,-0.342155 -0.222097,-0.513489 -0.07407,-0.171335 -0.128459,-0.359872 -0.095,-0.543508 0.02434,-0.13359 0.09445,-0.256137 0.18588,-0.356531 0.09143,-0.100393 0.203627,-0.179945 0.321081,-0.248086 0.234908,-0.136282 0.495593,-0.231042 0.708585,-0.399533 0.178038,-0.14084 0.317056,-0.331369 0.392941,-0.54532 0.07588,-0.213951 0.08783,-0.450743 0.02986,-0.670226 -0.02576,-0.09753 -0.06475,-0.190966 -0.09771,-0.286305 -0.03296,-0.09534 -0.06013,-0.194173 -0.06084,-0.295045 -5.04e-4,-0.07106 0.01213,-0.141478 0.01855,-0.21225 0.0064,-0.07077 0.0063,-0.143981 -0.01855,-0.210549 -0.01775,-0.0475 -0.04761,-0.0899 -0.08325,-0.125966 -0.03565,-0.03606 -0.07703,-0.06603 -0.120151,-0.09271 -0.08625,-0.05335 -0.180263,-0.09425 -0.261977,-0.154314 -0.04086,-0.03003 -0.07855,-0.06493 -0.108009,-0.106209 -0.02945,-0.04127 -0.05047,-0.08919 -0.05644,-0.139546 -0.006,-0.05035 0.0038,-0.103148 0.03108,-0.145872 0.02731,-0.04272 0.07282,-0.07438 0.1231,-0.08098 0.03497,-0.0046 0.07052,0.0026 0.105701,0 0.03466,-0.0026 0.06829,-0.01478 0.09772,-0.03325 0.02943,-0.01847 0.05476,-0.0431 0.0758,-0.07075 0.04209,-0.05531 0.0668,-0.12168 0.08803,-0.187858 0.02123,-0.06618 0.03978,-0.133749 0.07166,-0.195505 0.03188,-0.06176 0.07903,-0.118365 0.142429,-0.146834 0.06642,-0.02983 0.143663,-0.02614 0.2114,-0.05285 0.04251,-0.01677 0.08003,-0.04528 0.10931,-0.08037 0.02928,-0.03509 0.05043,-0.07662 0.06376,-0.120336 0.02666,-0.08742 0.02201,-0.181766 0.0038,-0.271325 -0.01825,-0.08956 -0.0496,-0.175813 -0.07624,-0.263241 -0.02665,-0.08743 -0.04879,-0.177488 -0.04774,-0.26888 8.12e-4,-0.0707 0.01542,-0.142402 0,-0.2114 -0.0114,-0.051 -0.03916,-0.09784 -0.07671,-0.13418 -0.03755,-0.03634 -0.08461,-0.06233 -0.134693,-0.07722 -0.0949,-0.02822 -0.199707,-0.01617 -0.289337,0.02587 -0.08963,0.04205 -0.164336,0.112739 -0.218224,0.19579 -0.107776,0.166103 -0.131466,0.373138 -0.12664,0.571084 0.0022,0.08999 0.0098,0.180444 0.0333,0.267334 0.02353,0.08689 0.06372,0.170487 0.125099,0.236333 0.06138,0.06585 0.14513,0.112854 0.234795,0.120838 0.04483,0.004 0.09066,-0.0018 0.132634,-0.01802 0.04198,-0.01624 0.08,-0.04305 0.108374,-0.07799 0.03911,-0.04814 0.05943,-0.110348 0.10325,-0.154245 0.02191,-0.02195 0.05021,-0.03884 0.0811,-0.04162 0.01544,-0.0014 0.0313,8.3e-4 0.04546,0.0071 0.01416,0.0063 0.02655,0.01682 0.03444,0.03017 0.0072,0.0121 0.01049,0.0263 0.0102,0.04035 -2.93e-4,0.01405 -0.0041,0.02793 -0.0105,0.04046 -0.01271,0.02507 -0.03493,0.04424 -0.05925,0.05831 -0.04865,0.02815 -0.107033,0.03835 -0.151842,0.07228 -0.0458,0.03468 -0.07159,0.09021 -0.08438,0.14621 -0.01279,0.056 -0.01425,0.113883 -0.02132,0.17089 -0.02165,0.17464 -0.09731,0.341666 -0.211399,0.475649 -0.106181,0.124694 -0.243483,0.219995 -0.389436,0.294297 -0.145953,0.0743 -0.30111,0.128616 -0.456165,0.181352 -0.102795,0.03496 -0.206494,0.0695 -0.313999,0.08472 -0.107505,0.01522 -0.220106,0.0102 -0.320199,-0.03187 -0.117337,-0.04933 -0.209581,-0.146353 -0.275441,-0.255272 -0.06586,-0.10892 -0.108006,-0.230214 -0.149446,-0.350563 -0.04144,-0.120348 -0.0831,-0.241758 -0.148119,-0.35118 -0.06502,-0.109423 -0.156027,-0.207409 -0.272592,-0.258533 -0.07459,-0.03271 -0.15698,-0.04528 -0.230566,-0.08019 -0.03679,-0.01745 -0.07142,-0.04076 -0.09742,-0.0721 -0.02601,-0.03134 -0.04288,-0.07126 -0.04196,-0.111968 4.05e-4,-0.01783 0.0041,-0.0354 0.0059,-0.05315 0.0018,-0.01775 0.0014,-0.03629 -0.0059,-0.05255 -0.0081,-0.01806 -0.02443,-0.03177 -0.04291,-0.03888 -0.01848,-0.0071 -0.03896,-0.008 -0.05852,-0.0049 -0.03912,0.0062 -0.07395,0.0273 -0.109961,0.0438 -0.104283,0.04778 -0.221991,0.05752 -0.336674,0.05518 -0.114684,-0.0023 -0.22916,-0.01606 -0.343803,-0.01223 -0.114644,0.0038 -0.232071,0.02667 -0.327315,0.09059 -0.04762,0.03196 -0.08891,0.07401 -0.117,0.124014 -0.02809,0.05 -0.0426,0.10809 -0.03791,0.165251 0.0042,0.05152 0.02399,0.101409 0.05466,0.143027 0.03066,0.04162 0.07201,0.07501 0.118313,0.098 0.09261,0.04597 0.202635,0.04932 0.302677,0.02322 0.123177,-0.03213 0.231983,-0.105983 0.32514,-0.19274 0.09316,-0.08676 0.172671,-0.186853 0.256207,-0.282909 0.13923,-0.160097 0.290437,-0.30983 0.422799,-0.47565 0.49658,-0.622107 0.696806,-1.429504 0.79275,-2.219696 0.032,-0.263522 0.05369,-0.532777 0,-0.792748 -0.07221,-0.349631 -0.274329,-0.655756 -0.430628,-0.976733 -0.07815,-0.160488 -0.145809,-0.32761 -0.179088,-0.502985 -0.03328,-0.175375 -0.03088,-0.360194 0.02837,-0.528579 0.08603,-0.244512 0.287085,-0.437083 0.518397,-0.554057 0.231312,-0.116974 0.491635,-0.164993 0.750002,-0.185842 0.151503,-0.01223 0.304565,-0.01571 0.452915,-0.0488 0.14835,-0.03309 0.29468,-0.09927 0.392683,-0.21545 0.06165,-0.07309 0.101251,-0.162299 0.131171,-0.253118 0.02992,-0.09082 0.05094,-0.184358 0.08023,-0.275382 0.04114,-0.127844 0.09832,-0.24991 0.158549,-0.369949 0.114579,-0.228371 0.240908,-0.451222 0.340439,-0.686541 0.09953,-0.23532 0.172276,-0.486024 0.17283,-0.741526 5.55e-4,-0.255502 -0.07648,-0.517162 -0.246656,-0.707746 -0.08509,-0.09529 -0.192422,-0.171402 -0.312363,-0.215386 -0.119941,-0.04398 -0.252439,-0.0552 -0.377049,-0.02705 -0.07845,0.01773 -0.154502,0.05156 -0.213708,0.105995 -0.0592,0.05444 -0.100301,0.130736 -0.103389,0.211105 -0.0019,0.04914 0.01036,0.09855 0.03366,0.141862 0.0233,0.04331 0.05747,0.08052 0.09779,0.10868 0.08063,0.05633 0.18405,0.0751 0.281558,0.06221 0.09751,-0.0129 0.189379,-0.05563 0.269736,-0.112343 0.08036,-0.05672 0.150029,-0.127191 0.215707,-0.200406 0.08532,-0.09511 0.165949,-0.197683 0.211399,-0.3171 0.02587,-0.06798 0.03973,-0.139852 0.05285,-0.2114 0.150321,-0.819567 0.220348,-1.651864 0.26425,-2.483945 0.0046,-0.08805 0.009,-0.176533 0,-0.26425 -0.02711,-0.264414 -0.17566,-0.505661 -0.369948,-0.687049 -0.228112,-0.212966 -0.522439,-0.353434 -0.831117,-0.399342 -0.308678,-0.04591 -0.630393,0.0026 -0.912929,0.135093 -0.308404,0.144658 -0.563231,0.382485 -0.79275,0.634199 -0.08366,0.09175 -0.165047,0.186301 -0.231675,0.291076 -0.06663,0.104776 -0.118384,0.220561 -0.138274,0.343123 -0.0059,0.03615 -0.0089,0.07273 -0.01571,0.108723 -0.0068,0.03599 -0.01743,0.07181 -0.03714,0.102676 -0.01953,0.0306 -0.04758,0.05547 -0.07959,0.07261 -0.03201,0.01714 -0.06787,0.02666 -0.104087,0.02924 -0.07243,0.0052 -0.144741,-0.01718 -0.208532,-0.05187 -0.127582,-0.06937 -0.223862,-0.185517 -0.347692,-0.261384 -0.176274,-0.107998 -0.3931,-0.125963 -0.581347,-0.2114 -0.179833,-0.08162 -0.328931,-0.22431 -0.4312,-0.393256 -0.102269,-0.168945 -0.159074,-0.363214 -0.178941,-0.5597 -0.03973,-0.392973 0.06465,-0.785604 0.187342,-1.1610404 0.06574,-0.2011476 0.137701,-0.4019601 0.245736,-0.5839214 0.108034,-0.1819613 0.254992,-0.3455835 0.442152,-0.4443374 0.09358,-0.049377 0.196462,-0.081933 0.301868,-0.091146 0.105406,-0.00921 0.213298,0.00525 0.311018,0.045822 0.09772,0.040572 0.184908,0.1076009 0.245883,0.194073 0.06098,0.086472 0.095,0.1924054 0.09169,0.2981616 -0.0028,0.089552 -0.03212,0.1776578 -0.08063,0.2529862 -0.04851,0.075328 -0.115842,0.1379579 -0.192725,0.1839627 -0.153767,0.09201 -0.341844,0.1157789 -0.519391,0.09155 C 29.529664,9.5476199 29.229401,9.3381734 29.056991,9.0525781 28.88458,8.7669828 28.83807,8.4120846 28.912859,8.0869746 c 0.07479,-0.32511 0.266564,-0.6189676 0.52209,-0.833436 0.255525,-0.2144683 0.572375,-0.3510411 0.900902,-0.4090082 0.105548,-0.018623 0.212513,-0.029418 0.317098,-0.05285 0.127449,-0.028554 0.251232,-0.076161 0.361224,-0.1465907 0.109991,-0.07043 0.205959,-0.1641055 0.272977,-0.2762087 0.07053,-0.1179851 0.107524,-0.2529102 0.133989,-0.3878 0.02646,-0.1348899 0.04325,-0.2717986 0.07741,-0.4049486 0.03188,-0.1242636 0.07871,-0.2445336 0.105699,-0.3699494 0.05401,-0.2509438 0.0266,-0.5116085 -0.0074,-0.7660417 -0.03396,-0.2544333 -0.07432,-0.5115401 -0.04549,-0.7666055 0.008,-0.070583 0.02104,-0.1435531 0,-0.2113997 -0.01713,-0.055258 -0.05577,-0.1018054 -0.100645,-0.1383127 -0.04488,-0.036507 -0.09618,-0.064109 -0.146652,-0.092381 -0.05047,-0.028272 -0.100938,-0.057788 -0.14314,-0.09736 -0.0422,-0.039572 -0.076,-0.090482 -0.08521,-0.1475964 -0.0084,-0.052263 0.004,-0.1057636 0,-0.1585497 -0.0041,-0.053993 -0.026,-0.1064851 -0.06146,-0.1474058 -0.03546,-0.040921 -0.08431,-0.070048 -0.13717,-0.081795 -0.05286,-0.011747 -0.109446,-0.00605 -0.158903,0.016001 -0.04946,0.022049 -0.09152,0.060331 -0.11811,0.1075004 z"
     style="fill:none;stroke:#ffd77d;stroke-width:0.05291667;stroke-linecap:butt;stroke-linejoin:miter;stroke-opacity:1;stroke-miterlimit:4;stroke-dasharray:0.31750001,0.31750001;stroke-dashoffset:0"
     inkscape:path-effect="#path-effect2365" />
</svg>
