<?xml version="1.0" encoding="UTF-8" standalone="no"?>
<!-- Created with Inkscape (http://www.inkscape.org/) -->

<svg
   width="100pt"
   height="100pt"
   viewBox="0 0 35.277777 35.277777"
   version="1.1"
   id="svg5"
   inkscape:version="1.2.2 (b0a8486541, 2022-12-01)"
   sodipodi:docname="freebird-icon.svg"
   xmlns:inkscape="http://www.inkscape.org/namespaces/inkscape"
   xmlns:sodipodi="http://sodipodi.sourceforge.net/DTD/sodipodi-0.dtd"
   xmlns="http://www.w3.org/2000/svg"
   xmlns:svg="http://www.w3.org/2000/svg">
  <sodipodi:namedview
     id="namedview7"
     pagecolor="#ffffff"
     bordercolor="#000000"
     borderopacity="0.25"
     inkscape:showpageshadow="2"
     inkscape:pageopacity="0.0"
     inkscape:pagecheckerboard="0"
     inkscape:deskcolor="#d1d1d1"
     inkscape:document-units="pt"
     showgrid="false"
     showborder="false"
     showguides="false"
     inkscape:zoom="5.5731762"
     inkscape:cx="69.619187"
     inkscape:cy="71.592927"
     inkscape:window-width="1920"
     inkscape:window-height="1011"
     inkscape:window-x="0"
     inkscape:window-y="0"
     inkscape:window-maximized="1"
     inkscape:current-layer="layer1" />
  <defs
     id="defs2" />
  <g
     inkscape:label="Layer 1"
     inkscape:groupmode="layer"
     id="layer1">
    <path
       id="path1358-7-5"
       style="fill:none;fill-opacity:1;stroke:#40280b;stroke-width:0.705556;stroke-linecap:round;stroke-linejoin:bevel;stroke-opacity:1"
       d="m 22.107606,22.760047 c 0,5.841564 4.241586,10.884382 9.543963,10.884382 h 9.013538 M 25.578901,22.634031 c 0,4.046908 2.866417,6.3605 6.3605,6.3605 H 40.95294 M 1.1984047,22.749294 c 0,4.046908 2.8664172,6.3605 6.3605002,6.3605 H 16.572443 M 4.5561402,21.96428 c 0,-4.046908 2.8664177,-6.3605 6.3605008,-6.3605 h 9.013538 M 0.18620576,22.308367 H 35.011403" />
    <path
       id="path1441-5"
       style="fill:none;stroke:#1d8b1f;stroke-width:0.705556;stroke-linecap:round;stroke-linejoin:bevel;stroke-opacity:1"
       d="m 18.390214,29.116024 a 0.77397108,0.77397108 0 0 1 -0.773971,0.773971 0.77397108,0.77397108 0 0 1 -0.773971,-0.773971 0.77397108,0.77397108 0 0 1 0.773971,-0.773971 0.77397108,0.77397108 0 0 1 0.773971,0.773971 z m 3.235917,-13.525357 a 0.77397108,0.77397108 0 0 1 -0.773971,0.773971 0.77397108,0.77397108 0 0 1 -0.773972,-0.773971 0.77397108,0.77397108 0 0 1 0.773972,-0.773971 0.77397108,0.77397108 0 0 1 0.773971,0.773971 z" />
    <path
       style="fill:#a8bbd9;fill-opacity:1;stroke:#222452;stroke-width:0.352778;stroke-linecap:round;stroke-linejoin:bevel;stroke-dasharray:none;stroke-opacity:1"
       d="M 15.734125,6.2715934 C 16.033023,5.2579176 15.083305,4.3717466 14.19867,4.0784965 13.069055,3.7380486 11.572147,4.6394218 11.756973,5.9145247 c 0.09842,0.7099675 1.022957,1.3107798 0.27949,2.001726 -0.589166,0.6644057 -0.701538,1.635416 -0.534973,2.4801393 0.240727,0.623204 0.520883,1.236091 0.799083,1.846559 0.314453,0.711945 0.970116,1.206484 1.71892,1.386272 0.846347,0.244492 1.732547,0.342633 2.601228,0.44806 0.458812,-0.18985 1.160167,0.08018 1.294251,0.261764 0.329186,-0.333449 1.07503,0.0418 1.152301,-0.563329 0.925763,-0.336549 1.876023,0.131172 2.768298,0.358941 1.172314,0.4701 2.50213,0.813833 3.34072,1.820827 0.851476,0.342967 1.433094,-0.964277 0.404763,-1.125348 -0.696514,-0.35861 -1.475721,-0.547224 -2.130105,-0.988713 0.850761,0.114498 1.471203,0.911247 2.359703,0.867041 C 26.0133,13.955947 25.05213,13.61704 24.527533,13.328109 23.47238,12.909235 22.399686,12.534312 21.380387,12.030053 20.688545,11.704397 20.018535,11.331001 19.384585,10.903062 20.063003,11.537653 20.301629,10.292682 19.76655,9.9576687 19.088141,8.7257221 17.679167,8.0134242 16.303843,7.9859941 15.451613,8.2464211 15.038866,7.6664047 15.430396,6.9070982 15.493355,6.6803735 15.58089,6.4536327 15.734125,6.2715934 Z"
       id="path1560" />
    <path
       style="fill:none;fill-opacity:1;stroke:#222452;stroke-width:0.352777;stroke-linecap:round;stroke-linejoin:miter;stroke-dasharray:none;stroke-opacity:1"
       d="M 12.515125,5.9016735 11.08357,6.4263277 12.554464,6.5658509"
       id="path1625" />
    <path
       id="path1629"
       style="fill:none;fill-opacity:1;stroke:#080915;stroke-width:0.176389;stroke-linecap:round;stroke-linejoin:bevel;stroke-dasharray:none;stroke-opacity:1"
       d="m 12.379274,5.2651644 c 0,-1.3496919 -0.881199,-1.1515337 -0.881199,0.1451618 m 1.568193,0.00538 c -0.0913,-1.0741861 0.935881,-0.9139558 0.935881,0.2449523" />
    <path
       style="fill:none;fill-opacity:1;stroke:#222452;stroke-width:0.352777;stroke-linecap:round;stroke-linejoin:bevel;stroke-dasharray:none;stroke-opacity:1"
       d="m 15.131185,10.028622 c 0.766392,1.358159 2.045646,1.104465 3.12642,1.474566"
       id="path1631"
       sodipodi:nodetypes="cc" />
    <path
       style="fill:none;fill-opacity:1;stroke:#000000;stroke-width:0.352777;stroke-linecap:round;stroke-linejoin:bevel;stroke-dasharray:none;stroke-opacity:1"
       d="m 18.304157,14.249461 -0.02812,1.02718 c 0.02235,-0.475774 0.764186,-0.117323 0.485443,0.713286"
       id="path1633"
       sodipodi:nodetypes="ccc" />
    <path
       style="fill:none;fill-opacity:1;stroke:#000000;stroke-width:0.352777;stroke-linecap:round;stroke-linejoin:bevel;stroke-dasharray:none;stroke-opacity:1"
       d="m 16.196884,14.104037 -0.202858,1.113104 c -0.17368,-0.80354 -0.580839,0.200262 -0.407883,0.794062"
       id="path1635"
       sodipodi:nodetypes="ccc" />
  </g>
</svg>
