<?xml version="1.0" encoding="UTF-8" standalone="no"?>
<svg
   xmlns:dc="http://purl.org/dc/elements/1.1/"
   xmlns:cc="http://creativecommons.org/ns#"
   xmlns:rdf="http://www.w3.org/1999/02/22-rdf-syntax-ns#"
   xmlns:svg="http://www.w3.org/2000/svg"
   xmlns="http://www.w3.org/2000/svg"
   style="shape-rendering:crispEdges"
   id="svg8"
   version="1.1"
   viewBox="0 0 35.277779 35.277777"
   height="100pt"
   width="100pt">
  <title
     id="title4528">Default</title>
  <defs
     id="defs2" />
  <metadata
     id="metadata5">
    <rdf:RDF>
      <cc:Work
         rdf:about="">
        <dc:format>image/svg+xml</dc:format>
        <dc:type
           rdf:resource="http://purl.org/dc/dcmitype/StillImage" />
        <dc:title>Default</dc:title>
        <dc:creator>
          <cc:Agent>
            <dc:title>Jonathan Crowder</dc:title>
          </cc:Agent>
        </dc:creator>
        <dc:description>A default for inkscape</dc:description>
      </cc:Work>
    </rdf:RDF>
  </metadata>
  <g
     transform="translate(0,-261.7222)"
     id="layer1">
    <path
       id="path1727"
       transform="matrix(0.26458335,0,0,0.26458335,0,261.7222)"
       d="M 103.875 6.6660156 L 29.708984 6.9960938 L 6.6660156 81.160156 L 66.587891 126.66602 L 126.66602 80.628906 L 126.27539 79.371094 L 103.875 6.6660156 z M 101.34375 10.335938 L 122.58008 79.25 L 66.591797 122.1543 L 10.759766 79.748047 L 32.238281 10.642578 L 101.34375 10.335938 z M 35.441406 18.796875 C 35.047357 18.850922 34.649061 19.313641 34.566406 19.751953 L 32.976562 28.201172 C 32.866314 28.786432 33.246669 29.563286 33.832031 29.455078 L 37.275391 28.820312 C 37.860862 28.712218 38.431309 28.549662 38.529297 27.962891 L 38.548828 27.833984 L 50.955078 30.167969 C 51.643908 34.004302 53.788233 34.770244 56.767578 34.806641 L 56.767578 36.087891 L 53.367188 36.087891 C 52.937194 36.087891 52.587891 36.434078 52.587891 36.863281 L 52.587891 44.011719 L 50.378906 44.011719 C 50.342623 44.011719 50.314453 44.032959 50.314453 44.072266 L 50.314453 44.787109 C 50.314453 44.817346 50.342698 44.849609 50.378906 44.849609 L 52.587891 44.849609 L 52.587891 45.380859 C 52.587891 45.810629 52.937176 46.160156 53.367188 46.160156 L 53.53125 46.160156 L 52.763672 47.443359 C 52.568233 47.771422 52.673978 48.191758 53 48.388672 L 51.628906 50.681641 C 51.351224 51.146258 51.499924 51.748162 51.964844 52.025391 L 52.744141 52.488281 C 53.209083 52.764943 53.804327 52.612941 54.082031 52.148438 L 55.457031 49.851562 L 55.501953 49.882812 C 55.83081 50.079348 56.251033 49.970263 56.447266 49.642578 L 56.767578 49.107422 L 56.767578 51.667969 C 56.767578 52.305802 58.346262 52.951172 58.984375 52.951172 L 59.072266 52.951172 L 59.072266 54.564453 C 59.072266 55.466551 59.146304 55.660978 60.046875 55.607422 L 60.826172 55.5625 C 61.726765 55.508453 61.769531 55.337644 61.769531 54.435547 L 61.769531 52.820312 C 62.404246 52.817175 63.914063 52.305638 63.914062 51.669922 L 63.914062 49.484375 C 64.127757 49.587178 64.381923 49.599332 64.601562 49.462891 L 64.650391 49.431641 L 66.099609 51.861328 C 66.393468 52.353045 67.02956 52.513805 67.521484 52.220703 L 68.341797 51.724609 C 68.833717 51.431318 68.995011 50.798584 68.701172 50.306641 L 67.246094 47.876953 C 67.591051 47.667945 67.704821 47.221318 67.498047 46.875 L 67.011719 46.060547 C 67.263511 45.932043 67.443359 45.680185 67.443359 45.376953 L 67.443359 44.849609 L 69.427734 44.849609 C 69.464018 44.849609 69.496094 44.826416 69.496094 44.787109 L 69.496094 44.072266 C 69.496094 44.042029 69.464018 44.009766 69.427734 44.009766 L 67.443359 44.009766 L 67.443359 36.859375 C 67.443359 36.429605 67.094074 36.083984 66.664062 36.083984 L 63.914062 36.083984 L 63.914062 34.605469 C 67.999335 34.729815 72.562445 35.807045 76.902344 40.613281 C 82.290427 46.001564 85.349122 54.31554 85.472656 66.59375 L 36.900391 66.59375 C 36.396799 66.59375 35.988281 66.997802 35.988281 67.501953 L 35.988281 72.783203 C 35.988281 73.286485 36.396799 73.693359 36.900391 73.693359 L 48.873047 73.693359 C 48.814275 73.813926 48.773437 73.946637 48.773438 74.089844 L 48.773438 74.419922 C 48.757941 74.418901 48.744049 74.417969 48.728516 74.417969 L 45.078125 74.417969 C 45.036966 74.417969 45.00032 74.435674 44.960938 74.439453 C 44.922424 74.435674 44.889559 74.417969 44.849609 74.417969 L 43.572266 74.417969 C 43.142276 74.417969 42.792969 74.765996 42.792969 75.195312 L 42.792969 76.609375 C 42.792969 77.039145 43.142254 77.384766 43.572266 77.384766 L 44.849609 77.384766 C 45.279599 77.384766 45.625 77.039674 45.625 76.609375 L 45.625 76.291016 L 48.728516 76.291016 C 48.744012 76.291016 48.757904 76.287109 48.773438 76.287109 L 48.773438 77.761719 C 48.773438 78.265794 49.179998 78.667969 49.683594 78.667969 L 59.003906 78.667969 C 59.507502 78.667969 59.916016 78.264812 59.916016 77.761719 L 59.916016 74.09375 C 59.916016 73.94975 59.87514 73.819748 59.816406 73.699219 L 89.875 73.699219 C 75.698031 76.151943 96.849913 91.278135 37.447266 88.332031 C 36.944214 88.309354 36.783503 88.797513 36.541016 89.238281 L 35.441406 91.232422 C 35.19895 91.673266 35.847971 92.144531 36.351562 92.144531 L 98.878906 92.144531 C 99.382577 92.144531 99.791016 91.735968 99.791016 91.232422 L 99.791016 74.449219 C 99.791016 74.118132 99.60617 73.857694 99.34375 73.699219 L 99.431641 73.699219 C 99.935236 73.699219 100.33789 73.290769 100.33789 72.787109 L 100.33789 67.505859 C 100.33789 67.001859 99.93527 66.599609 99.431641 66.599609 L 96.658203 66.599609 C 96.529624 52.376945 92.806257 40.698816 84.8125 32.705078 C 76.676402 24.568965 64.7442 20.839844 50.175781 20.839844 L 50.458984 24.669922 L 39.423828 22.59375 L 39.480469 22.257812 C 39.578547 21.670247 39.10113 21.361261 38.625 21.003906 L 35.820312 18.902344 C 35.701257 18.812769 35.572733 18.784215 35.441406 18.802734 L 35.441406 18.796875 z M 76.738281 30.742188 A 2.6988763 2.6988763 0 0 1 79.435547 33.443359 A 2.6988763 2.6988763 0 0 1 76.738281 36.140625 A 2.6988763 2.6988763 0 0 1 74.039062 33.443359 A 2.6988763 2.6988763 0 0 1 76.738281 30.742188 z M 83.837891 39.007812 A 1.536615 1.536615 0 0 1 85.376953 40.546875 A 1.536615 1.536615 0 0 1 83.837891 42.080078 A 1.536615 1.536615 0 0 1 82.304688 40.546875 A 1.536615 1.536615 0 0 1 83.837891 39.007812 z M 88.552734 47.789062 A 2.3760259 2.3760259 0 0 1 90.929688 50.166016 A 2.3760259 2.3760259 0 0 1 88.552734 52.542969 A 2.3760259 2.3760259 0 0 1 86.179688 50.166016 A 2.3760259 2.3760259 0 0 1 88.552734 47.789062 z M 91.083984 63.441406 L 91.085938 63.441406 A 3.4091471 3.4091471 0 0 1 94.480469 66.59375 A 3.4091471 3.4091471 0 0 1 94.494141 66.849609 A 3.4091471 3.4091471 0 0 1 94.476562 67.189453 A 3.4091471 3.4091471 0 0 1 91.085938 70.257812 A 3.4091471 3.4091471 0 0 1 87.716797 67.341797 A 3.4091471 3.4091471 0 0 1 87.681641 67.017578 A 3.4091471 3.4091471 0 0 1 87.677734 66.849609 A 3.4091471 3.4091471 0 0 1 91.083984 63.441406 z "
       style="color:#000000;font-style:normal;font-variant:normal;font-weight:normal;font-stretch:normal;font-size:medium;line-height:normal;font-family:sans-serif;font-variant-ligatures:normal;font-variant-position:normal;font-variant-caps:normal;font-variant-numeric:normal;font-variant-alternates:normal;font-feature-settings:normal;text-indent:0;text-align:start;text-decoration:none;text-decoration-line:none;text-decoration-style:solid;text-decoration-color:#000000;letter-spacing:normal;word-spacing:normal;text-transform:none;writing-mode:lr-tb;direction:ltr;text-orientation:mixed;dominant-baseline:auto;baseline-shift:baseline;text-anchor:start;white-space:normal;shape-padding:0;clip-rule:nonzero;display:inline;overflow:visible;visibility:visible;opacity:1;isolation:auto;mix-blend-mode:normal;color-interpolation:sRGB;color-interpolation-filters:linearRGB;solid-color:#000000;solid-opacity:1;vector-effect:none;fill:#ffffff;fill-opacity:1;fill-rule:evenodd;stroke:none;stroke-width:3.56494832;stroke-linecap:butt;stroke-linejoin:miter;stroke-miterlimit:4;stroke-dasharray:none;stroke-dashoffset:0;stroke-opacity:1;color-rendering:auto;image-rendering:auto;shape-rendering:auto;text-rendering:auto;enable-background:accumulate" />
  </g>
</svg>
