<?xml version="1.0" encoding="UTF-8" standalone="no"?>
<svg
   xmlns:dc="http://purl.org/dc/elements/1.1/"
   xmlns:cc="http://creativecommons.org/ns#"
   xmlns:rdf="http://www.w3.org/1999/02/22-rdf-syntax-ns#"
   xmlns:svg="http://www.w3.org/2000/svg"
   xmlns="http://www.w3.org/2000/svg"
   id="svg8"
   version="1.1"
   viewBox="0 0 35.277779 35.277777"
   height="100pt"
   width="100pt">
  <defs
     id="defs2" />
  <metadata
     id="metadata5">
    <rdf:RDF>
      <cc:Work
         rdf:about="">
        <dc:format>image/svg+xml</dc:format>
        <dc:type
           rdf:resource="http://purl.org/dc/dcmitype/StillImage" />
        <dc:title></dc:title>
      </cc:Work>
    </rdf:RDF>
  </metadata>
  <g
     transform="translate(0,-261.72223)"
     id="layer1">
    <path
       id="path817"
       d="m 29.756104,263.12938 c -0.281454,0.0794 -0.605361,0.25526 -0.869911,0.54322 l -19.3921686,23.20645 -2.5018679,0.62472 c -0.7587549,0.18946 -0.7488468,1.24754 -0.4392353,1.55727 l 0.083467,0.0835 c -2.9643511,1.33119 -5.0944729,3.09701 -4.000868,7.19842 0.6702135,-1.76136 4.2319009,-0.36519 4.2319009,-0.36519 1.2050522,-1.32547 1.0124178,-2.39865 2.2108408,-4.06063 l 0.083467,0.0835 c 0.3096696,0.30968 1.0039071,0.11386 1.5568991,-0.43912 l 0.709386,-2.69377 22.319058,-20.33475 c 0.5781,-0.5267 0.74881,-1.24723 0.439135,-1.5569 l -3.742737,-3.74274 c -0.154838,-0.15484 -0.405906,-0.18336 -0.687366,-0.10398 z"
       style="fill:#cbcbcb;fill-opacity:1;stroke:none;stroke-width:0.18187149px;stroke-linecap:butt;stroke-linejoin:miter;stroke-opacity:1" />
  </g>
</svg>
