<?xml version="1.0" encoding="UTF-8" standalone="no"?>
<!-- Created with Inkscape (http://www.inkscape.org/) -->

<svg
   xmlns:dc="http://purl.org/dc/elements/1.1/"
   xmlns:cc="http://creativecommons.org/ns#"
   xmlns:rdf="http://www.w3.org/1999/02/22-rdf-syntax-ns#"
   xmlns:svg="http://www.w3.org/2000/svg"
   xmlns="http://www.w3.org/2000/svg"
   xmlns:sodipodi="http://sodipodi.sourceforge.net/DTD/sodipodi-0.dtd"
   xmlns:inkscape="http://www.inkscape.org/namespaces/inkscape"
   width="100pt"
   height="100pt"
   viewBox="0 0 35.277779 35.277777"
   version="1.1"
   id="svg8"
   style="shape-rendering:crispEdges"
   inkscape:version="0.92.3 (2405546, 2018-03-11)"
   sodipodi:docname="icon_fire.svg">
  <title
     id="title4528">Default</title>
  <defs
     id="defs2" />
  <sodipodi:namedview
     id="base"
     pagecolor="#212121"
     bordercolor="#252525"
     borderopacity="1"
     inkscape:pageopacity="0.84705882"
     inkscape:pageshadow="2"
     inkscape:zoom="3.9597981"
     inkscape:cx="107.48748"
     inkscape:cy="75.311694"
     inkscape:document-units="pt"
     inkscape:current-layer="layer1"
     showgrid="true"
     showborder="true"
     inkscape:showpageshadow="false"
     inkscape:pagecheckerboard="true"
     units="pt"
     showguides="false"
     inkscape:window-width="1366"
     inkscape:window-height="705"
     inkscape:window-x="-8"
     inkscape:window-y="-8"
     inkscape:window-maximized="1"
     inkscape:snap-grids="true"
     fit-margin-top="0"
     fit-margin-left="0"
     fit-margin-right="0"
     fit-margin-bottom="0">
    <inkscape:grid
       type="xygrid"
       id="grid4526"
       originx="0"
       originy="-3.7460629e-005" />
  </sodipodi:namedview>
  <metadata
     id="metadata5">
    <rdf:RDF>
      <cc:Work
         rdf:about="">
        <dc:format>image/svg+xml</dc:format>
        <dc:type
           rdf:resource="http://purl.org/dc/dcmitype/StillImage" />
        <dc:title>Default</dc:title>
        <dc:creator>
          <cc:Agent>
            <dc:title>Jonathan Crowder</dc:title>
          </cc:Agent>
        </dc:creator>
        <dc:description>A default for inkscape</dc:description>
      </cc:Work>
    </rdf:RDF>
  </metadata>
  <g
     inkscape:label="Layer 1"
     inkscape:groupmode="layer"
     id="layer1"
     transform="translate(0,-261.7222)">
    <path
       style="color:#000000;font-style:normal;font-variant:normal;font-weight:normal;font-stretch:normal;font-size:medium;line-height:normal;font-family:sans-serif;font-variant-ligatures:normal;font-variant-position:normal;font-variant-caps:normal;font-variant-numeric:normal;font-variant-alternates:normal;font-feature-settings:normal;text-indent:0;text-align:start;text-decoration:none;text-decoration-line:none;text-decoration-style:solid;text-decoration-color:#000000;letter-spacing:normal;word-spacing:normal;text-transform:none;writing-mode:lr-tb;direction:ltr;text-orientation:mixed;dominant-baseline:auto;baseline-shift:baseline;text-anchor:start;white-space:normal;shape-padding:0;clip-rule:nonzero;display:inline;overflow:visible;visibility:visible;opacity:1;isolation:auto;mix-blend-mode:normal;color-interpolation:sRGB;color-interpolation-filters:linearRGB;solid-color:#000000;solid-opacity:1;vector-effect:none;fill:#ffffff;fill-opacity:1;fill-rule:evenodd;stroke:none;stroke-width:0.94322592;stroke-linecap:butt;stroke-linejoin:miter;stroke-miterlimit:4;stroke-dasharray:none;stroke-dashoffset:0;stroke-opacity:1;color-rendering:auto;image-rendering:auto;shape-rendering:auto;text-rendering:auto;enable-background:accumulate"
       d="m 27.483581,263.48609 -19.6228592,0.087 -6.0968328,19.62291 15.854332,12.04006 15.895669,-12.18072 -0.103584,-0.3329 z m -0.669506,0.97088 5.618817,18.23362 L 17.61917,294.0421 2.8467884,282.82214 8.5297532,264.53792 Z m -6.344395,0.78014 c -5.322463,0.47073 -1.67744,4.03113 -4.656609,2.55646 -1.063258,1.32579 -2.107989,0.0366 -2.656168,0.62026 0.920063,1.78605 -0.96755,8.16326 -1.637416,7.24387 0.429727,0.45754 0.261169,1.40123 0.655251,1.82084 0.374233,0.39845 0.795119,0.85419 1.254909,1.27644 l -4.2147074,2.33183 -0.6652296,0.74473 0.2646665,1.80514 2.0845455,1.41154 2.176252,-1.68221 -0.640996,1.08572 -0.220476,1.00073 1.086225,1.41458 2.468479,0.0951 2.336382,-6.61955 c -0.301372,-0.0694 -0.594717,-0.18373 -0.872877,-0.3592 -0.219762,0.0845 -0.435487,0.13413 -0.647649,0.15986 l -0.383457,0.33088 c -0.283639,-0.1428 -0.671359,-0.35836 -1.06912,-0.59092 l 2.339235,-3.96091 1.132316,-0.0365 0.732228,0.97088 -0.117842,0.33341 0.681861,0.0218 1.143246,1.93568 4.75e-4,9e-4 c 0.03509,0.13135 0.115233,0.28391 0.258014,0.44267 2.2e-4,-0.002 2.58e-4,-0.003 4.76e-4,-0.005 l 0.01236,0.0208 c -0.005,-0.006 -0.0079,-0.0108 -0.01282,-0.0162 -0.0011,0.008 -0.0036,0.0185 -0.0048,0.0264 -0.696239,0.42465 -1.441848,0.71461 -2.171501,0.78519 l 2.248953,6.37166 2.13824,-0.0824 0.940824,-1.22535 -0.190541,-0.86717 -2.189082,-3.70642 4.463693,4.58775 2.00852,-1.09028 0.387733,-1.61592 -0.54406,-0.73815 -5.44871,-3.75298 c 1.319832,-1.37487 2.048357,-3.04425 1.313354,-3.82683 -2.157221,-2.26793 -1.324051,-2.04859 -1.600829,-2.98244 -3.134312,-0.75457 1.057798,-1.70221 0.400088,-2.16942 -0.689823,-0.36112 -1.868284,-0.74973 -2.40148,-1.31744 -0.547161,-0.58259 0.449866,-2.30574 -0.181988,-2.75022 z m -1.344714,15.16568 -0.52078,-1.47477 -0.499398,1.41457 c 0.331822,0.0765 0.67379,0.0937 1.020178,0.0602 z"
       id="path1727"
       inkscape:connector-curvature="0" />
  </g>
</svg>
