<?xml version="1.0" encoding="UTF-8" standalone="no"?>
<!-- Created with Inkscape (http://www.inkscape.org/) -->

<svg
   width="100pt"
   height="100pt"
   viewBox="0 0 35.277777 35.277777"
   version="1.1"
   id="svg5"
   inkscape:version="1.2.2 (b0a8486541, 2022-12-01)"
   sodipodi:docname="logo.svg"
   xmlns:inkscape="http://www.inkscape.org/namespaces/inkscape"
   xmlns:sodipodi="http://sodipodi.sourceforge.net/DTD/sodipodi-0.dtd"
   xmlns="http://www.w3.org/2000/svg"
   xmlns:svg="http://www.w3.org/2000/svg">
  <sodipodi:namedview
     id="namedview7"
     pagecolor="#ffffff"
     bordercolor="#000000"
     borderopacity="0.25"
     inkscape:showpageshadow="2"
     inkscape:pageopacity="0.0"
     inkscape:pagecheckerboard="0"
     inkscape:deskcolor="#d1d1d1"
     inkscape:document-units="pt"
     showgrid="false"
     showborder="false"
     showguides="false"
     inkscape:zoom="3.9408307"
     inkscape:cx="80.186139"
     inkscape:cy="77.141096"
     inkscape:window-width="1920"
     inkscape:window-height="1011"
     inkscape:window-x="0"
     inkscape:window-y="0"
     inkscape:window-maximized="1"
     inkscape:current-layer="layer1" />
  <defs
     id="defs2" />
  <g
     inkscape:label="Layer 1"
     inkscape:groupmode="layer"
     id="layer1">
    <path
       id="path3075"
       style="fill:#01ff15;fill-opacity:1;stroke:none;stroke-width:0.395103;stroke-linecap:square;stroke-dasharray:none;stroke-opacity:1"
       d="m 30.284511,12.185493 c -0.01945,0.0098 -0.17509,0.09314 -0.217066,0.05053 -0.185785,-0.188589 -0.402477,-0.491277 -0.513142,-0.714932 -0.05113,-0.103356 -0.199456,-0.181405 -0.271697,-0.271698 -0.305107,-0.381383 -0.630015,-0.70521 -0.977524,-1.052717 -0.04534,-0.04534 -0.07523,-0.115568 -0.135994,-0.135997 -0.09723,-0.03269 -0.104482,1.023754 -0.06756,1.095309 0.136221,0.263926 0.439095,0.40256 0.630044,0.630045 0.191828,0.228529 0.239911,0.480567 0.306358,0.74636 0.107788,0.43117 -0.08233,0.858167 -0.150389,1.266553 -0.0055,0.03282 -0.01762,0.716104 -0.07519,0.888817 -0.034,0.102003 -0.224492,0.118623 -0.244675,0.205903 -0.139145,0.602143 0.213228,2.588754 -0.07373,2.946671 -0.22171,0.276541 -0.693971,0.450654 -0.85915,0.783665 -0.05956,0.120089 -0.130549,0.240623 -0.14951,0.373327 -0.05337,0.373658 0.118695,0.328296 -0.149505,0.525183 -0.133401,0.09793 -0.269455,-0.232475 -0.303714,-0.278159 -0.246624,-0.328832 -1.046917,-1.149976 -1.464818,-1.263908 -0.213235,-0.05814 -0.347171,-0.0792 -0.522834,-0.225582 -0.183316,-0.152764 -0.509641,-0.673312 -0.796881,-0.661473 -0.204224,0.0084 -1.000956,0.779687 -1.200463,0.899392 -0.277997,0.166798 -0.750488,0.07519 -1.052719,0.07519 -1.254718,0 -0.834572,-0.458308 -1.656327,-0.905267 -0.306411,-0.166661 -0.661195,0.463604 -0.861502,0.603609 -0.490485,0.342824 -1.018331,0.634427 -1.684965,1.132465 -0.216545,0.220503 0.257458,0.446102 0.3582,0.6064 0.08222,0.130837 -0.01516,1.166014 -0.07519,1.32794 -0.09627,0.259662 -0.364724,0.406969 -0.491112,0.637975 -0.0205,0.03747 0.02116,0.109825 0,0.146864 -0.113211,0.198256 -0.163399,0.436911 -0.362165,0.585986 -0.190414,0.142809 -0.09865,0.03476 -0.300777,0.07519 -0.185789,0.03717 -0.415715,0.06525 -0.571887,0.134234 -0.181476,0.08017 -0.476006,-0.04536 -0.669405,0 -0.05965,0.014 -0.112311,0.07141 -0.129827,0.130121 -0.08857,0.296732 0.383122,0.565017 0.299896,0.887056 -0.06387,0.247172 -0.175711,0.464835 -0.219121,0.720219 -0.103948,0.611469 0.272432,1.299376 0.600673,1.791737 0.07631,0.114471 0.215274,0.187565 0.297839,0.297838 0.0664,0.08868 0.127136,0.226948 0.225583,0.300777 0.166639,0.124979 0.354219,0.2603 0.525183,0.374501 0.392619,0.262265 0.901642,0.351945 1.201638,0.751943 0.243673,0.3249 -0.01965,0.884042 0.07519,1.257445 0.03607,0.142027 0.435927,0.386929 0.299895,0.567774 -0.139563,0.185541 -0.347268,0.304652 -0.443821,0.501098 -0.07208,0.14667 0.158744,0.329152 0.21677,0.42855 0.0492,0.08428 0,0.356748 0,0.453514 8.650307,1.008449 18.263744,-3.499772 11.65539,-18.690449 z"
       sodipodi:nodetypes="csssssssssssssssscssscsssssssssssscscsssscssscc" />
    <path
       id="path3075-9"
       style="fill:#2401ff;fill-opacity:1;stroke:none;stroke-width:0.395103;stroke-linecap:square;stroke-dasharray:none;stroke-opacity:1"
       d="m 29.911933,11.681978 c -0.01946,0.0098 -0.175089,0.09314 -0.217065,0.05053 -0.185786,-0.188589 -0.402477,-0.491277 -0.513142,-0.714932 -0.05114,-0.103356 -0.199457,-0.181406 -0.271697,-0.271698 -0.305107,-0.381383 -0.630016,-0.705209 -0.977524,-1.0527176 -0.04534,-0.045341 -0.07523,-0.1155674 -0.135993,-0.135996 -0.09723,-0.03269 -0.104483,1.0237526 -0.06755,1.0953086 0.136222,0.263926 0.439095,0.402559 0.630045,0.630044 0.191828,0.22853 0.23991,0.480568 0.306359,0.746361 0.107786,0.431171 -0.08233,0.858167 -0.15039,1.266553 -0.0055,0.03282 -0.01762,0.716104 -0.07519,0.888818 -0.034,0.102002 -0.224493,0.118622 -0.244675,0.205902 -0.139146,0.602143 0.213227,2.588755 -0.07372,2.946671 -0.22171,0.276541 -0.693972,0.450654 -0.859151,0.783665 -0.05956,0.120089 -0.130547,0.240623 -0.149508,0.373327 -0.05337,0.373659 0.118693,0.328295 -0.149507,0.525183 -0.133401,0.09793 -0.269454,-0.232475 -0.303714,-0.278159 -0.246623,-0.328832 -1.046917,-1.149976 -1.464818,-1.263908 -0.213235,-0.05814 -0.34717,-0.0792 -0.522833,-0.225582 -0.183317,-0.152765 -0.509641,-0.673312 -0.796882,-0.661474 -0.204223,0.0084 -1.000955,0.779688 -1.200462,0.899392 -0.277996,0.166799 -0.750489,0.07519 -1.052719,0.07519 -1.254719,0 -0.834572,-0.458307 -1.656327,-0.905268 -0.306411,-0.16666 -0.661195,0.463605 -0.861503,0.60361 -0.490483,0.342824 -1.018331,0.634426 -1.870306,1.17356 -0.429661,0.11987 -0.571303,0.0064 -0.622846,-0.07332 -0.250287,-0.386895 -0.190385,-0.951295 -0.671755,-1.240117 -0.396835,-0.238101 -0.916738,0.139629 -1.244521,0 -0.06741,-0.02871 -0.22203,-0.82016 -0.488763,-0.90791 -0.180484,-0.05937 -0.571136,0.02074 -0.73696,0 -0.07865,-0.0099 -0.147464,-0.06179 -0.225583,-0.07519 -0.576609,-0.09901 -1.958356,0.01009 -2.457027,0.150388 -0.07594,0.02137 -0.258592,0.270452 -0.294902,0.294901 -0.246562,0.166037 -0.5093239,0.306653 -0.7639839,0.459978 -0.022909,0.04583 -0.029002,0.105132 -0.068727,0.137464 -0.050874,0.04145 -0.034184,-0.127036 -0.044946,-0.191804 -0.02102,-0.126066 -0.050128,-0.250647 -0.075201,-0.37597 0,-0.07519 0.010644,-0.15115 0,-0.225583 C 9.5092201,16.184584 9.4648161,15.979548 9.388058,15.787642 9.374897,15.754722 9.321492,15.746822 9.312867,15.712452 9.2695407,15.539208 9.2047758,14.518663 9.0364562,14.41241 8.6655256,14.178262 8.2826344,13.928908 7.9913644,13.589093 7.7324847,13.287066 7.9261459,13.458448 7.7657817,13.137927 7.6842399,12.974949 7.5564331,12.839201 7.4626552,12.682945 7.3604623,12.512666 7.2051375,11.889002 7.0922653,11.806169 6.7322879,11.541971 6.1113132,11.732907 5.9343928,11.210784 5.8595082,10.989785 6.0386975,10.006052 6.084781,9.775632 c 0.055209,-0.2760387 0,-0.6178531 0,-0.9023302 V 8.4506292 C 9.5654056,5.0856956 13.697464,9.1741623 17.566942,10.258299 L 28.051239,4.2420327 Z"
       sodipodi:nodetypes="cssscsssscccccccsscscssscsssssssssssscscsssscssscccc" />
    <path
       id="path3079"
       style="fill:#ff0101;fill-opacity:1;stroke:none;stroke-width:0.395103;stroke-linecap:square;stroke-dasharray:none;stroke-opacity:1"
       d="m 17.5275,19.561047 c 0.08223,0.130838 -0.01515,1.166015 -0.07519,1.327941 -0.09628,0.259662 -0.364724,0.406969 -0.491112,0.637974 -0.0205,0.03747 0.02116,0.109825 0,0.146864 -0.113213,0.198257 -0.163399,0.436911 -0.362165,0.585986 -0.190415,0.142811 -0.09865,0.03476 -0.300777,0.07519 -0.185789,0.03717 -0.415716,0.06525 -0.571888,0.134233 -0.181474,0.08017 -0.476004,-0.04536 -0.669403,0 -0.05965,0.014 -0.112307,0.07141 -0.129828,0.130121 -0.08856,0.296733 0.383119,0.565018 0.299896,0.887056 -0.06387,0.247171 -0.175708,0.464835 -0.21912,0.72022 -0.103949,0.611468 0.272432,1.299375 0.600672,1.791735 0.07631,0.114472 0.215273,0.18757 0.297839,0.297839 0.0664,0.08868 0.127139,0.226944 0.225582,0.300778 0.16664,0.124979 0.354221,0.260298 0.525184,0.374501 0.392619,0.262265 0.901641,0.351945 1.201638,0.751942 0.243674,0.324899 -0.01965,0.884043 0.0752,1.257445 0.03607,0.142027 0.435928,0.386929 0.299896,0.567775 -0.139563,0.185541 -0.347271,0.304651 -0.443822,0.501098 -0.07208,0.146668 0.158745,0.329146 0.216771,0.42855 0.0492,0.08429 0,0.356748 -0.369216,0.820377 C 8.5981347,34.101076 -4.4496087,16.335796 5.6600417,9.0479649 v 0.4226726 c 0,0.284476 0.055208,0.6262915 0,0.9023305 -0.046084,0.23042 -0.2252733,1.214152 -0.1503883,1.435151 0.1769206,0.522123 0.7978952,0.331188 1.1578726,0.595386 0.1128722,0.08284 0.268197,0.706496 0.3703899,0.876775 0.093778,0.156257 0.2215847,0.292005 0.3031264,0.454983 0.1603643,0.32052 -0.033297,0.149138 0.2255825,0.451165 0.2912706,0.339816 0.6741609,0.58917 1.0450811,0.823317 0.1683186,0.106252 0.2330877,1.126796 0.2763971,1.300036 0.00863,0.03439 0.06204,0.04228 0.075191,0.07519 0.076762,0.191906 0.1211566,0.39694 0.1503881,0.601553 0.010644,0.07443 0,0.150387 0,0.225582 0.025064,0.125324 0.054185,0.249905 0.075191,0.375972 0.010747,0.06476 -0.00593,0.233253 0.044946,0.191803 0.039734,-0.03233 0.04582,-0.09164 0.06873,-0.137464 0.2546608,-0.153325 0.5174215,-0.293942 0.7639839,-0.459978 0.03632,-0.02445 0.218968,-0.273532 0.294903,-0.294902 0.498671,-0.140308 1.880418,-0.249393 2.457026,-0.150388 0.07811,0.01341 0.146938,0.06534 0.225584,0.07519 0.165823,0.02074 0.556474,-0.05937 0.73696,0 0.266731,0.08775 0.421352,0.879194 0.488763,0.90791 0.327782,0.139629 0.847685,-0.238103 1.244521,0 0.481368,0.288822 0.421468,0.853222 0.671754,1.240116 0.05154,0.07967 0.193188,0.193188 0.519894,0.186957 0.246808,0.02782 0.720807,0.253415 0.821551,0.413714 z"
       sodipodi:nodetypes="ssscssssssssssssssssccssscssssccccccccscccssccs" />
    <path
       style="fill:none;stroke:#000000;stroke-width:2.76572;stroke-linecap:square;stroke-dasharray:none"
       d="M 28.317508,5.5101927 C 48.28249,37.572419 0.0182094,40.358663 1.9347374,13.613378 2.2370284,10.118581 4.7691923,6.2424252 8.6103075,6.2633272 11.814298,6.1287452 15.103458,7.3462818 17.304197,9.7092145"
       id="path2633"
       sodipodi:nodetypes="cccc" />
    <path
       style="fill:#000000;fill-opacity:1;stroke:none;stroke-width:0.395103;stroke-linecap:square;stroke-dasharray:none;stroke-opacity:1"
       d="m 20.191908,7.0742236 -5.142869,5.3217484 5.908028,0.502568 z"
       id="path3069" />
  </g>
</svg>
