<?xml version="1.0" encoding="UTF-8" standalone="no"?>
<svg
   xmlns:dc="http://purl.org/dc/elements/1.1/"
   xmlns:cc="http://creativecommons.org/ns#"
   xmlns:rdf="http://www.w3.org/1999/02/22-rdf-syntax-ns#"
   xmlns:svg="http://www.w3.org/2000/svg"
   xmlns="http://www.w3.org/2000/svg"
   id="svg8"
   version="1.1"
   viewBox="0 0 35.277779 35.277777"
   height="100pt"
   width="100pt">
  <title
     id="title4528">Default</title>
  <defs
     id="defs2" />
  <metadata
     id="metadata5">
    <rdf:RDF>
      <cc:Work
         rdf:about="">
        <dc:format>image/svg+xml</dc:format>
        <dc:type
           rdf:resource="http://purl.org/dc/dcmitype/StillImage" />
        <dc:title>Default</dc:title>
        <dc:creator>
          <cc:Agent>
            <dc:title>Jonathan Crowder</dc:title>
          </cc:Agent>
        </dc:creator>
        <dc:description>A default for inkscape</dc:description>
      </cc:Work>
    </rdf:RDF>
  </metadata>
  <g
     transform="translate(0,-261.72223)"
     id="layer1">
    <circle
       r="17.638889"
       cy="279.36111"
       cx="17.638889"
       id="path1019"
       style="opacity:1;vector-effect:none;fill:#000e17;fill-opacity:1;fill-rule:evenodd;stroke-width:0.65892869;stroke-linecap:butt;stroke-linejoin:miter;stroke-miterlimit:4;stroke-dasharray:none;stroke-dashoffset:0;stroke-opacity:1" />
    <path
       id="rect815"
       d="m 9.1466404,267.19377 c -0.125321,0.0172 -0.251968,0.16424 -0.278256,0.30365 l -0.505694,2.68731 c -0.03506,0.18613 0.08574,0.43333 0.271906,0.39891 l 1.095242,-0.20186 c 0.1862,-0.0344 0.3677986,-0.0865 0.3989626,-0.27317 l 0.0064,-0.0406 3.945158,0.742 c 0.219072,1.22009 0.90116,1.46358 1.848697,1.47516 v 0.40783 h -1.081304 c -0.136754,0 -0.247764,0.1099 -0.247764,0.24649 v 2.27309 h -0.702632 c -0.01156,0 -0.02041,0.007 -0.02041,0.0197 v 0.22743 c 0,0.01 0.0089,0.0197 0.02041,0.0197 h 0.702632 v 0.16892 c 0,0.1367 0.111012,0.24779 0.247764,0.24779 h 0.0521 l -0.243955,0.40782 c -0.06216,0.10425 -0.02872,0.2385 0.07497,0.30113 l -0.435809,0.72933 c -0.08832,0.14777 -0.04113,0.33871 0.106733,0.42688 l 0.247763,0.14753 c 0.147868,0.088 0.337328,0.0398 0.425648,-0.10794 l 0.437078,-0.73061 0.01402,0.01 c 0.104594,0.0625 0.238718,0.028 0.301127,-0.0762 l 0.101644,-0.17014 v 0.8144 c 0,0.20285 0.50223,0.40788 0.705173,0.40788 h 0.02796 v 0.51328 c 0,0.28689 0.0236,0.3487 0.310023,0.33166 l 0.247764,-0.0147 c 0.286422,-0.0172 0.299856,-0.0713 0.299856,-0.35831 v -0.51333 c 0.201862,-10e-4 0.682302,-0.16376 0.682302,-0.36594 v -0.69496 c 0.06796,0.0327 0.148679,0.0362 0.218531,-0.007 l 0.01524,-0.01 0.461223,0.77251 c 0.09346,0.15637 0.295876,0.20752 0.452327,0.11433 l 0.260468,-0.1576 c 0.156449,-0.0934 0.207812,-0.29463 0.114355,-0.45108 l -0.462491,-0.77251 c 0.109708,-0.0664 0.145827,-0.20875 0.08006,-0.3189 l -0.155023,-0.25924 c 0.08008,-0.0408 0.137222,-0.12097 0.137222,-0.21736 v -0.16768 h 0.631477 c 0.01156,0 0.02164,-0.007 0.02164,-0.0197 v -0.22743 c 0,-0.01 -0.01008,-0.0197 -0.02164,-0.0197 h -0.631477 v -2.27435 c 0,-0.13671 -0.111012,-0.24649 -0.247766,-0.24649 h -0.874161 v -0.47013 c 1.299263,0.0396 2.750421,0.38238 4.130664,1.91095 1.713602,1.71366 2.686113,4.3577 2.725401,8.26262 H 9.6104374 c -0.160161,0 -0.289692,0.1281 -0.289692,0.28844 v 1.6797 c 0,0.16006 0.129526,0.28969 0.289692,0.28969 h 3.8079366 c -0.01869,0.0383 -0.03177,0.0802 -0.03177,0.12588 v 0.10548 c -0.0049,-3.2e-4 -0.0091,-0.002 -0.01402,-0.002 h -1.161311 c -0.01303,0 -0.02434,0.005 -0.03686,0.007 -0.01229,-0.002 -0.02287,-0.007 -0.03558,-0.007 h -0.406585 c -0.136754,0 -0.247766,0.11114 -0.247766,0.24772 v 0.44978 c 0,0.1367 0.111012,0.24648 0.247766,0.24648 h 0.406585 c 0.136755,0 0.246493,-0.10966 0.246493,-0.24648 v -0.10155 h 0.987242 c 0.0049,0 0.0091,-0.002 0.01402,-0.002 v 0.46886 c 0,0.16031 0.129526,0.28838 0.289692,0.28838 h 2.964269 c 0.160161,0 0.289692,-0.12834 0.289692,-0.28838 v -1.16646 c 0,-0.0457 -0.01303,-0.0875 -0.03177,-0.12589 h 9.559863 c -4.508782,0.78006 2.218308,5.59112 -16.6738526,4.65415 -0.159989,-0.007 -0.211303,0.14826 -0.288423,0.28844 l -0.34941,0.63403 c -0.07711,0.14014 0.129526,0.28966 0.289692,0.28966 H 29.322227 c 0.160186,0 0.289692,-0.12957 0.289692,-0.28966 v -5.33775 c 0,-0.10524 -0.05886,-0.18834 -0.142311,-0.23874 h 0.02796 c 0.160161,0 0.288423,-0.12958 0.288423,-0.28969 v -1.67971 c 0,-0.1603 -0.128247,-0.28843 -0.288423,-0.28843 h -0.881783 c -0.04089,-4.52332 -1.224977,-8.23732 -3.767277,-10.77962 -2.587569,-2.58757 -6.382673,-3.77363 -11.01595,-3.77363 l 0.09021,1.21844 -3.509349,-0.66068 0.0177,-0.10671 c 0.0312,-0.18686 -0.120478,-0.28533 -0.271906,-0.39898 l -0.8919466,-0.66835 c -0.03787,-0.0285 -0.07892,-0.0374 -0.120699,-0.0317 z m 13.1340106,3.79907 a 0.85833894,0.85833894 0 0 1 0.857644,0.85891 0.85833894,0.85833894 0 0 1 -0.857644,0.8576 0.85833894,0.85833894 0 0 1 -0.858914,-0.8576 0.85833894,0.85833894 0 0 1 0.858914,-0.85891 z m 2.257825,2.62882 a 0.48869839,0.48869839 0 0 1 0.489176,0.48914 0.48869839,0.48869839 0 0 1 -0.489176,0.48791 0.48869839,0.48869839 0 0 1 -0.487903,-0.48791 0.48869839,0.48869839 0 0 1 0.487903,-0.48914 z m 1.499287,2.7927 a 0.75566102,0.75566102 0 0 1 0.755998,0.75599 0.75566102,0.75566102 0 0 1 -0.755998,0.75605 0.75566102,0.75566102 0 0 1 -0.754726,-0.75605 0.75566102,0.75566102 0 0 1 0.754726,-0.75599 z m 0.805551,4.97819 a 1.0842304,1.0842304 0 0 1 1.079996,1.00247 1.0842304,1.0842304 0 0 1 0.0039,0.0814 1.0842304,1.0842304 0 0 1 -0.0052,0.10794 1.0842304,1.0842304 0 0 1 -1.078724,0.97582 1.0842304,1.0842304 0 0 1 -1.071103,-0.92756 1.0842304,1.0842304 0 0 1 -0.01156,-0.10302 1.0842304,1.0842304 0 0 1 -0.0013,-0.0534 1.0842304,1.0842304 0 0 1 1.083807,-1.08378 z"
       style="opacity:1;vector-effect:none;fill:#71c2ff;fill-opacity:1;fill-rule:evenodd;stroke-width:0.2101282;stroke-linecap:butt;stroke-linejoin:miter;stroke-miterlimit:4;stroke-dasharray:none;stroke-dashoffset:0;stroke-opacity:1" />
  </g>
</svg>
