<?xml version="1.0" encoding="UTF-8" standalone="no"?>
<!-- Created with Inkscape (http://www.inkscape.org/) -->

<svg
   xmlns:dc="http://purl.org/dc/elements/1.1/"
   xmlns:cc="http://creativecommons.org/ns#"
   xmlns:rdf="http://www.w3.org/1999/02/22-rdf-syntax-ns#"
   xmlns:svg="http://www.w3.org/2000/svg"
   xmlns="http://www.w3.org/2000/svg"
   xmlns:xlink="http://www.w3.org/1999/xlink"
   xmlns:sodipodi="http://sodipodi.sourceforge.net/DTD/sodipodi-0.dtd"
   xmlns:inkscape="http://www.inkscape.org/namespaces/inkscape"
   width="100pt"
   height="19.301378pt"
   viewBox="0 0 35.277779 6.8090972"
   version="1.1"
   id="svg8"
   inkscape:version="0.92.3 (2405546, 2018-03-11)"
   sodipodi:docname="title.svg">
  <title
     id="title4528">Default</title>
  <defs
     id="defs2">
    <linearGradient
       inkscape:collect="always"
       id="linearGradient2130">
      <stop
         style="stop-color:#f8e6cb;stop-opacity:1"
         offset="0"
         id="stop2126" />
      <stop
         id="stop2134"
         offset="0.42413855"
         style="stop-color:#fb9d20;stop-opacity:1" />
      <stop
         style="stop-color:#ed4412;stop-opacity:1;"
         offset="0.80521965"
         id="stop2136" />
      <stop
         style="stop-color:#951006;stop-opacity:1"
         offset="1"
         id="stop2128" />
    </linearGradient>
    <linearGradient
       inkscape:collect="always"
       xlink:href="#linearGradient2130"
       id="linearGradient2132"
       x1="21.190605"
       y1="296.38336"
       x2="21.264978"
       y2="293.86066"
       gradientUnits="userSpaceOnUse"
       gradientTransform="matrix(0.97059775,0,0,0.9705866,0.39920982,8.6673155)" />
  </defs>
  <sodipodi:namedview
     id="base"
     pagecolor="#212121"
     bordercolor="#252525"
     borderopacity="1"
     inkscape:pageopacity="0.84705882"
     inkscape:pageshadow="2"
     inkscape:zoom="5.6000001"
     inkscape:cx="94.578977"
     inkscape:cy="33.133853"
     inkscape:document-units="pt"
     inkscape:current-layer="layer1"
     showgrid="false"
     showborder="true"
     inkscape:showpageshadow="false"
     inkscape:pagecheckerboard="true"
     units="pt"
     showguides="false"
     inkscape:window-width="1366"
     inkscape:window-height="705"
     inkscape:window-x="-8"
     inkscape:window-y="-8"
     inkscape:window-maximized="1"
     inkscape:snap-grids="true"
     fit-margin-top="0"
     fit-margin-left="0"
     fit-margin-right="0"
     fit-margin-bottom="0"
     inkscape:snap-global="false">
    <inkscape:grid
       type="xygrid"
       id="grid4526"
       originx="0"
       originy="0.00033478163" />
  </sodipodi:namedview>
  <metadata
     id="metadata5">
    <rdf:RDF>
      <cc:Work
         rdf:about="">
        <dc:format>image/svg+xml</dc:format>
        <dc:type
           rdf:resource="http://purl.org/dc/dcmitype/StillImage" />
        <dc:title>Default</dc:title>
        <dc:creator>
          <cc:Agent>
            <dc:title>Jonathan Crowder</dc:title>
          </cc:Agent>
        </dc:creator>
        <dc:description>A default for inkscape</dc:description>
      </cc:Work>
    </rdf:RDF>
  </metadata>
  <g
     inkscape:label="Layer 1"
     inkscape:groupmode="layer"
     id="layer1"
     transform="translate(0,-290.19125)">
    <path
       style="fill:url(#linearGradient2132);fill-opacity:1;stroke:#000000;stroke-width:0.13696134;stroke-miterlimit:4;stroke-dasharray:none;stroke-opacity:1"
       d="m 32.30245,296.87288 c -0.291017,-0.13029 -0.492491,-0.44652 -0.56756,-0.89083 -0.02749,-0.16258 -0.04576,-0.18596 -0.147927,-0.18902 l -0.116583,-0.004 0.120431,-0.0441 c 0.104988,-0.0383 0.120476,-0.0673 0.120763,-0.22643 0.0011,-0.58127 0.245696,-1.24277 0.566939,-1.53299 0.285147,-0.25763 0.563988,-0.3153 1.25459,-0.25947 0.748956,0.0605 0.936906,0.16028 1.071742,0.56883 0.07478,0.22657 0.02382,0.72144 -0.09969,0.96784 -0.0857,0.17093 -0.129894,0.20937 -0.297707,0.25878 -0.108387,0.0319 -0.285752,0.087 -0.39414,0.12263 -0.108387,0.0355 -0.284133,0.0646 -0.390549,0.0644 -0.106414,-1.3e-4 -0.318263,0.0215 -0.470776,0.0479 -0.308843,0.0537 -0.322019,0.0769 -0.22609,0.39715 0.08988,0.29997 0.456455,0.55134 0.82466,0.56552 0.196198,0.008 -0.672425,0.21311 -0.89776,0.21246 -0.12043,-3.4e-4 -0.278083,-0.0273 -0.350342,-0.0596 z m 0.876111,-1.53751 c 0.332372,-0.10136 0.369686,-0.12434 0.438814,-0.27002 0.09392,-0.19791 0.106185,-0.55773 0.02555,-0.7489 -0.03352,-0.0795 -0.119349,-0.17462 -0.190772,-0.21155 -0.129249,-0.0668 -0.130841,-0.0661 -0.338943,0.14976 -0.228261,0.23681 -0.381852,0.57587 -0.435608,0.9616 -0.03889,0.27893 -0.02996,0.28104 0.500965,0.11911 z m -4.607507,1.50744 c -0.262915,-0.0761 -0.342272,-0.32292 -0.206563,-0.64263 0.312866,-0.73712 0.481963,-1.43674 0.433636,-1.79419 -0.0415,-0.3071 -0.100858,-0.47201 -0.202886,-0.5639 -0.08984,-0.081 -0.0847,-0.0829 0.406733,-0.15099 0.544969,-0.0755 0.581774,-0.067 0.675133,0.15488 l 0.0545,0.12962 0.562828,-0.0115 c 0.640289,-0.013 0.913285,0.0455 1.116192,0.23979 0.069,0.0661 0.125434,0.13382 0.125434,0.15052 0,0.0166 -0.227777,0.0448 -0.506171,0.0621 -0.432714,0.0272 -0.517421,0.0215 -0.583705,-0.0385 -0.121435,-0.10989 -0.160965,-0.0877 -0.34869,0.19312 -0.206031,0.30853 -0.375773,0.73133 -0.597665,1.48864 -0.171003,0.58359 -0.225944,0.67836 -0.447618,0.77218 -0.15905,0.0673 -0.277454,0.0699 -0.481168,0.011 z m -27.92003378,-0.0277 c -0.13849587,-0.009 -0.2518104,-0.0255 -0.2518104,-0.037 0,-0.0352 0.13882599,-0.24448 0.33151829,-0.49985 0.30427469,-0.4033 1.15744529,-1.7605 1.15744529,-1.84125 0,-0.0232 -0.02956,-0.042 -0.065692,-0.042 -0.036125,0 -0.065692,-0.0198 -0.065692,-0.0439 0,-0.0243 0.04449,-0.0439 0.098868,-0.0439 0.085837,0 0.1878539,-0.17741 0.774284,-1.34659 0.3714785,-0.74067 0.7950258,-1.61215 0.9412165,-1.93665 0.2897976,-0.64323 0.3436864,-0.70008 0.6649805,-0.70122 0.2895997,-9.5e-4 0.3924145,0.11124 0.4289885,0.46839 0.033216,0.32439 0.5177663,2.30632 0.8890684,3.6365 0.074961,0.26855 0.079306,0.27376 0.2306155,0.27625 0.084815,9.3e-4 0.2330419,0.0175 0.3293871,0.0359 l 0.1751722,0.0333 -0.2846551,0.0347 c -0.1565603,0.0191 -0.2957642,0.0413 -0.3093424,0.0491 -0.042438,0.025 0.2090666,1.16883 0.3064833,1.39411 0.050955,0.11779 0.087224,0.21914 0.080596,0.22523 -0.00664,0.005 -0.1772797,0.018 -0.3792284,0.0269 l -0.3671804,0.0154 -0.107343,-0.28465 c -0.059038,-0.15657 -0.1343203,-0.43245 -0.1672943,-0.61313 -0.032975,-0.18062 -0.08431,-0.44025 -0.1140815,-0.57693 -0.061747,-0.28347 -0.014051,-0.26158 -0.7381264,-0.33843 -1.1476479,-0.12181 -1.3445012,-0.14426 -1.4513693,-0.16549 -0.1031908,-0.0206 -0.1320969,0.004 -0.2677025,0.23334 -0.311602,0.52541 -0.7852584,1.25534 -1.012966,1.56102 -0.1293147,0.17357 -0.257941,0.35998 -0.2858373,0.41415 -0.035919,0.0696 -0.085426,0.0961 -0.1696108,0.0901 -0.0653935,-0.004 -0.23220438,-0.0152 -0.37069933,-0.0242 z m 4.17128768,-2.28393 c 0,-0.0216 -0.038293,-0.16443 -0.085096,-0.3175 -0.046806,-0.15308 -0.2048699,-0.75127 -0.3512558,-1.32933 -0.1463854,-0.57807 -0.2821375,-1.08959 -0.3016702,-1.13669 -0.028031,-0.0677 -0.1753997,0.1923 -0.6994342,1.23373 l -0.663921,1.3194 0.1200883,0.0243 c 0.3990075,0.0805 1.0065947,0.16863 1.3672314,0.19855 0.6072091,0.0501 0.6140608,0.0502 0.6140608,0.008 z m 20.4843451,2.23136 c -0.449264,-0.0889 -0.625574,-0.65686 -0.449516,-1.44772 0.17482,-0.78529 0.188983,-1.22849 0.0439,-1.37357 -0.03346,-0.0334 -0.193765,-0.0751 -0.356183,-0.0923 l -0.295312,-0.0315 0.104453,-0.0789 c 0.315451,-0.23795 1.098969,-0.24485 1.365863,-0.0117 0.08715,0.0761 0.167061,0.41369 0.166572,0.7039 -1.82e-4,0.11325 -0.04946,0.44191 -0.109484,0.73041 -0.116298,0.55897 -0.136831,0.90775 -0.0646,1.09772 0.03612,0.0949 0.05633,0.1073 0.107078,0.0653 0.151446,-0.12569 0.344209,-0.50486 0.418077,-0.82239 0.07519,-0.32313 0.142709,-0.58017 0.287679,-1.09494 0.06086,-0.21612 0.07323,-0.22995 0.205851,-0.2306 0.0776,-3.4e-4 0.259346,-0.0292 0.403864,-0.0643 0.144516,-0.0348 0.277538,-0.0643 0.295603,-0.0652 0.117404,-0.005 -0.04101,0.95556 -0.247776,1.50353 -0.158774,0.42073 -0.158232,0.79983 0.0014,0.98956 0.06321,0.0751 0.107555,0.14226 0.09853,0.1492 -0.0093,0.007 -0.200819,0.0362 -0.426221,0.0654 -0.286945,0.0368 -0.426438,0.0389 -0.465226,0.007 -0.03048,-0.0255 -0.08254,-0.0373 -0.115692,-0.027 -0.124456,0.0396 -0.811092,0.0601 -0.968853,0.0288 z m -5.145827,-0.0352 c -0.350227,-0.01 -0.492672,-0.0292 -0.492666,-0.0672 4e-6,-0.0294 0.02959,-0.20775 0.06572,-0.39653 0.08037,-0.41995 0.08501,-1.39509 0.0087,-1.76043 -0.06,-0.28606 -0.254378,-0.58957 -0.377611,-0.58957 -0.0408,0 -0.116438,0.0394 -0.168146,0.0874 -0.05171,0.0482 -0.111945,0.0876 -0.133866,0.0876 -0.04097,0 -0.150106,0.34602 -0.255569,0.81014 -0.03284,0.14451 -0.07227,0.60272 -0.08766,1.0182 l -0.02794,0.75539 h -0.534406 -0.53441 l 0.01796,-0.64593 c 0.02316,-0.83406 0.06582,-1.12122 0.281958,-1.89895 l 0.177861,-0.63993 0.978878,0.0138 c 0.869051,0.0122 0.997538,0.0236 1.145178,0.0996 0.196705,0.10138 0.412249,0.3207 0.514558,0.52362 0.150922,0.29934 0.192063,1.64638 0.06804,2.22825 -0.08107,0.38025 -0.08922,0.40707 -0.121546,0.39762 -0.01762,-0.004 -0.253712,-0.0155 -0.524682,-0.0234 z M 21.70977,296.552 c 0.123423,-1.00829 0.291419,-2.04924 0.365091,-2.26217 0.04922,-0.14225 0.08948,-0.26541 0.08948,-0.27368 0,-0.009 -0.13302,-0.0166 -0.295604,-0.0189 -0.162581,-0.002 -0.394135,-0.0174 -0.514568,-0.0339 l -0.218965,-0.03 0.394139,-0.0541 c 0.216773,-0.0297 0.461081,-0.059 0.542902,-0.0648 0.146152,-0.0103 0.151398,-0.0177 0.298724,-0.42642 0.08248,-0.22883 0.168271,-0.5124 0.190661,-0.63019 0.07356,-0.38699 -0.07381,-0.67523 -0.352291,-0.68909 -0.176722,-0.009 0.522573,-0.12008 0.77368,-0.12313 0.179558,-0.002 0.253244,0.0194 0.349828,0.10254 0.111373,0.0958 0.123709,0.13609 0.137433,0.44886 0.01365,0.31103 -0.0018,0.39142 -0.163328,0.84724 -0.09814,0.277 -0.17858,0.51841 -0.178787,0.53647 -2.16e-4,0.018 0.20162,0.0347 0.448502,0.037 0.650642,0.007 0.762389,0.0544 0.287212,0.12368 -0.209351,0.0303 -0.473414,0.0485 -0.58681,0.0404 l -0.206175,-0.015 -0.0839,0.24086 c -0.06864,0.19701 -0.206005,1.04837 -0.365681,2.26625 l -0.02439,0.18614 h -0.456304 -0.456308 z m -6.924542,0.0974 c -0.02407,-0.009 -0.128665,-0.0379 -0.232395,-0.0648 -0.364613,-0.0938 -0.714754,-0.52175 -0.798804,-0.97639 -0.06626,-0.35855 0.009,-1.01141 0.147634,-1.2856 0.132976,-0.26239 0.464372,-0.57927 0.779214,-0.74505 0.228728,-0.1204 0.255247,-0.12406 0.892626,-0.12336 0.957557,9.4e-4 1.2224,0.1121 1.360293,0.57029 0.08513,0.28284 0.07775,0.53078 -0.02226,0.75113 -0.12124,0.26705 -0.322936,0.3557 -0.917979,0.40354 -0.26338,0.0213 -0.497497,0.0498 -0.52026,0.0642 -0.02276,0.0139 -0.206593,-0.004 -0.408513,-0.039 -0.201921,-0.0355 -0.384131,-0.0648 -0.404913,-0.0649 -0.02078,-4e-5 -0.03001,0.13736 -0.02052,0.30534 0.01544,0.27308 0.0361,0.33211 0.195137,0.55698 0.206192,0.29165 0.498177,0.47791 0.634583,0.4049 0.08655,-0.0463 0.814188,0.0282 0.88434,0.0901 0.01947,0.0171 -0.03279,0.0639 -0.1161,0.10337 -0.119895,0.057 -0.282596,0.0711 -0.779883,0.0683 -0.345608,-0.002 -0.648089,-0.0105 -0.672175,-0.0196 z m 0.441203,-1.63914 c 0.677235,-0.0546 0.871356,-0.19884 0.859779,-0.63886 -0.0087,-0.32244 -0.09493,-0.50721 -0.285321,-0.60971 -0.151693,-0.0819 -0.164455,-0.0822 -0.316928,-0.01 -0.212598,0.10137 -0.622296,0.49392 -0.724408,0.69407 -0.04524,0.0886 -0.09558,0.27443 -0.111831,0.41271 -0.02767,0.23525 -0.02416,0.24937 0.054,0.21907 0.04594,-0.0178 0.282072,-0.0485 0.524732,-0.0677 z m -6.3217424,1.51251 c -0.027462,-0.0603 -0.063517,-0.21196 -0.080114,-0.3371 l -0.030181,-0.22751 -0.079657,0.10935 c -0.2286493,0.3139 -0.6427255,0.45338 -1.209367,0.40744 -0.5816659,-0.0474 -0.8074329,-0.25489 -0.8365206,-0.7697 -0.022467,-0.39762 0.062498,-0.62244 0.34287,-0.90725 0.1672612,-0.16991 0.2639736,-0.22964 0.440591,-0.272 0.3270918,-0.0785 0.7659395,-0.0359 1.0374044,0.10033 l 0.2242005,0.11261 0.071619,-0.20473 c 0.039394,-0.11257 0.1002507,-0.42148 0.1352443,-0.68641 0.034994,-0.26497 0.1126068,-0.73163 0.1724736,-1.03708 0.059866,-0.30545 0.1128355,-0.60352 0.117708,-0.66243 0.00823,-0.0992 0.030818,-0.10906 0.3095142,-0.13495 0.1653605,-0.0152 0.3201012,-0.0159 0.3438683,-9.4e-4 0.024992,0.0153 0.032386,0.12186 0.017536,0.2524 -0.014124,0.12414 -0.043506,0.47206 -0.065292,0.77313 -0.030414,0.42025 -0.071585,0.64401 -0.1772801,0.96342 -0.1124472,0.33982 -0.143925,0.52312 -0.1718137,1.00052 -0.036025,0.6166 0.00477,1.30306 0.086606,1.45586 0.026813,0.0499 0.042231,0.0967 0.03426,0.10357 -0.00798,0.006 -0.1538233,0.0259 -0.3241124,0.042 -0.3005632,0.0285 -0.3110754,0.0264 -0.35955,-0.0802 z M 8.0193145,296.026 c 0.1349005,-0.13873 0.3093475,-0.38015 0.3876616,-0.53648 l 0.1423884,-0.28423 -0.1337027,-0.0135 c -0.073536,-0.008 -0.133702,-0.0314 -0.133702,-0.0531 0,-0.0575 -0.2600826,-0.34457 -0.3612108,-0.39868 -0.072505,-0.0389 -0.1147381,-0.0191 -0.2619729,0.12207 -0.2273236,0.21803 -0.3380978,0.46153 -0.3393019,0.74576 -0.00109,0.26196 0.053976,0.43257 0.1847615,0.57217 0.1429852,0.15263 0.2475231,0.12145 0.5150788,-0.15368 z m 3.5237855,0.51594 c -0.234861,-0.15054 -0.320919,-0.31604 -0.391915,-0.75381 -0.03637,-0.22424 -0.06629,-0.55549 -0.06651,-0.7361 -2.14e-4,-0.18067 -0.01303,-0.5192 -0.02846,-0.75231 l -0.02805,-0.42384 -0.332998,-0.0285 c -0.499249,-0.0427 -0.506006,-0.0462 -0.400266,-0.1945 0.144234,-0.20258 0.335112,-0.26498 0.810303,-0.26498 0.695703,0 0.735625,0.0573 0.760073,1.08944 l 0.01698,0.71721 0.273877,-0.52014 c 0.150633,-0.28608 0.311138,-0.58615 0.356677,-0.66681 l 0.08282,-0.14667 0.390532,0.0265 c 0.214794,0.0143 0.397882,0.0336 0.406866,0.0426 0.0093,0.01 -0.02882,0.0913 -0.08397,0.18326 -0.05516,0.0917 -0.328357,0.60746 -0.607078,1.14589 -0.278721,0.53842 -0.580232,1.06685 -0.670025,1.17425 -0.182691,0.21853 -0.282695,0.24078 -0.488789,0.1087 z m 0.614545,-0.39512 c 0.01488,-0.0243 0.0064,-0.0439 -0.01931,-0.0439 -0.02553,0 -0.04638,0.0196 -0.04638,0.0439 0,0.0242 0.009,0.0439 0.01931,0.0439 0.01061,0 0.0315,-0.0198 0.04639,-0.0439 z"
       id="path2124"
       inkscape:connector-curvature="0" />
  </g>
</svg>
